<?xml version="1.0"?>
<!-- Generated by SVGo -->
<svg width="800.00" height="800.00"
     xmlns="http://www.w3.org/2000/svg" 
     xmlns:xlink="http://www.w3.org/1999/xlink">
<rect x="0.00" y="0.00" width="800.00" height="800.00" fill="beige" />
<circle cx="356.11" cy="5.00" r="2.00" />
<circle cx="400.00" cy="9.49" r="2.00" />
<circle cx="443.89" cy="33.18" r="2.00" />
<circle cx="312.22" cy="56.97" r="2.00" />
<circle cx="487.78" cy="62.99" r="2.00" />
<circle cx="531.67" cy="106.19" r="2.00" />
<circle cx="268.33" cy="127.13" r="2.00" />
<circle cx="224.44" cy="179.75" r="2.00" />
<circle cx="575.56" cy="181.51" r="2.00" />
<circle cx="180.56" cy="255.07" r="2.00" />
<circle cx="619.44" cy="265.15" r="2.00" />
<circle cx="5.00" cy="282.80" r="2.00" />
<circle cx="795.00" cy="289.38" r="2.00" />
<circle cx="663.33" cy="315.58" r="2.00" />
<circle cx="136.67" cy="339.59" r="2.00" />
<circle cx="92.78" cy="389.59" r="2.00" />
<circle cx="707.22" cy="391.12" r="2.00" />
<circle cx="751.11" cy="425.11" r="2.00" />
<circle cx="48.89" cy="426.31" r="2.00" />
</svg>
