<?xml version="1.0"?>
<!-- Generated by SVGo -->
<svg width="800.00" height="800.00"
     xmlns="http://www.w3.org/2000/svg" 
     xmlns:xlink="http://www.w3.org/1999/xlink">
<rect x="0.00" y="0.00" width="800.00" height="800.00" fill="beige" />
<circle cx="379.21" cy="5.00" r="2.00" />
<circle cx="420.79" cy="5.69" r="2.00" />
<circle cx="462.37" cy="17.92" r="2.00" />
<circle cx="337.63" cy="22.41" r="2.00" />
<circle cx="503.95" cy="62.55" r="2.00" />
<circle cx="296.05" cy="74.54" r="2.00" />
<circle cx="545.53" cy="130.13" r="2.00" />
<circle cx="254.47" cy="133.36" r="2.00" />
<circle cx="587.11" cy="186.30" r="2.00" />
<circle cx="212.89" cy="200.60" r="2.00" />
<circle cx="171.32" cy="275.68" r="2.00" />
<circle cx="628.68" cy="276.83" r="2.00" />
<circle cx="795.00" cy="308.31" r="2.00" />
<circle cx="5.00" cy="310.74" r="2.00" />
<circle cx="129.74" cy="343.84" r="2.00" />
<circle cx="670.26" cy="343.84" r="2.00" />
<circle cx="88.16" cy="392.85" r="2.00" />
<circle cx="711.84" cy="401.27" r="2.00" />
<circle cx="753.42" cy="426.29" r="2.00" />
<circle cx="46.58" cy="449.01" r="2.00" />
</svg>
