<?xml version="1.0"?>
<!-- Generated by SVGo -->
<svg width="800" height="800"
     xmlns="http://www.w3.org/2000/svg" 
     xmlns:xlink="http://www.w3.org/1999/xlink">
<rect x="0" y="0" width="800" height="800" fill="beige" />
<circle cx="423" cy="5" r="2" />
<circle cx="376" cy="13" r="2" />
<circle cx="469" cy="33" r="2" />
<circle cx="330" cy="40" r="2" />
<circle cx="516" cy="50" r="2" />
<circle cx="283" cy="86" r="2" />
<circle cx="237" cy="125" r="2" />
<circle cx="562" cy="165" r="2" />
<circle cx="190" cy="224" r="2" />
<circle cx="609" cy="233" r="2" />
<circle cx="5" cy="249" r="2" />
<circle cx="795" cy="266" r="2" />
<circle cx="144" cy="293" r="2" />
<circle cx="655" cy="301" r="2" />
<circle cx="97" cy="340" r="2" />
<circle cx="702" cy="346" r="2" />
<circle cx="748" cy="385" r="2" />
<circle cx="51" cy="390" r="2" />
</svg>
