<?xml version="1.0"?>
<!-- Generated by SVGo -->
<svg width="800.00" height="800.00"
     xmlns="http://www.w3.org/2000/svg" 
     xmlns:xlink="http://www.w3.org/1999/xlink">
<rect x="0.00" y="0.00" width="800.00" height="800.00" fill="beige" />
<circle cx="400.00" cy="5.00" r="2.00" />
<circle cx="443.89" cy="27.41" r="2.00" />
<circle cx="356.11" cy="36.90" r="2.00" />
<circle cx="312.22" cy="48.39" r="2.00" />
<circle cx="487.78" cy="55.12" r="2.00" />
<circle cx="268.33" cy="98.40" r="2.00" />
<circle cx="531.67" cy="113.19" r="2.00" />
<circle cx="575.56" cy="159.89" r="2.00" />
<circle cx="224.44" cy="192.56" r="2.00" />
<circle cx="180.56" cy="253.72" r="2.00" />
<circle cx="619.44" cy="256.04" r="2.00" />
<circle cx="5.00" cy="282.43" r="2.00" />
<circle cx="795.00" cy="296.67" r="2.00" />
<circle cx="663.33" cy="315.77" r="2.00" />
<circle cx="136.67" cy="321.84" r="2.00" />
<circle cx="707.22" cy="377.70" r="2.00" />
<circle cx="92.78" cy="385.32" r="2.00" />
<circle cx="48.89" cy="415.35" r="2.00" />
<circle cx="751.11" cy="423.62" r="2.00" />
</svg>
