<?xml version="1.0"?>
<!-- Generated by SVGo -->
<svg width="800.00" height="800.00"
     xmlns="http://www.w3.org/2000/svg" 
     xmlns:xlink="http://www.w3.org/1999/xlink">
<rect x="0.00" y="0.00" width="800.00" height="800.00" fill="beige" />
<circle cx="420.79" cy="5.00" r="2.00" />
<circle cx="379.21" cy="13.12" r="2.00" />
<circle cx="337.63" cy="13.70" r="2.00" />
<circle cx="462.37" cy="24.60" r="2.00" />
<circle cx="503.95" cy="43.40" r="2.00" />
<circle cx="296.05" cy="59.52" r="2.00" />
<circle cx="545.53" cy="124.95" r="2.00" />
<circle cx="254.47" cy="129.36" r="2.00" />
<circle cx="212.89" cy="196.06" r="2.00" />
<circle cx="587.11" cy="201.51" r="2.00" />
<circle cx="171.32" cy="266.13" r="2.00" />
<circle cx="628.68" cy="272.05" r="2.00" />
<circle cx="795.00" cy="298.38" r="2.00" />
<circle cx="5.00" cy="312.76" r="2.00" />
<circle cx="670.26" cy="336.20" r="2.00" />
<circle cx="129.74" cy="342.58" r="2.00" />
<circle cx="88.16" cy="388.40" r="2.00" />
<circle cx="711.84" cy="400.58" r="2.00" />
<circle cx="46.58" cy="432.25" r="2.00" />
<circle cx="753.42" cy="438.86" r="2.00" />
</svg>
