<?xml version="1.0"?>
<!-- Generated by SVGo -->
<svg width="800" height="800"
     xmlns="http://www.w3.org/2000/svg" 
     xmlns:xlink="http://www.w3.org/1999/xlink">
<rect x="0" y="0" width="800" height="800" fill="beige" />
<circle cx="379" cy="5" r="2" />
<circle cx="462" cy="18" r="2" />
<circle cx="337" cy="29" r="2" />
<circle cx="503" cy="35" r="2" />
<circle cx="420" cy="50" r="2" />
<circle cx="296" cy="84" r="2" />
<circle cx="254" cy="135" r="2" />
<circle cx="545" cy="150" r="2" />
<circle cx="212" cy="198" r="2" />
<circle cx="587" cy="208" r="2" />
<circle cx="171" cy="269" r="2" />
<circle cx="628" cy="275" r="2" />
<circle cx="5" cy="295" r="2" />
<circle cx="795" cy="299" r="2" />
<circle cx="129" cy="338" r="2" />
<circle cx="670" cy="340" r="2" />
<circle cx="88" cy="388" r="2" />
<circle cx="711" cy="389" r="2" />
<circle cx="753" cy="418" r="2" />
<circle cx="46" cy="436" r="2" />
</svg>
