<?xml version="1.0"?>
<!-- Generated by SVGo -->
<svg width="800.00" height="800.00"
     xmlns="http://www.w3.org/2000/svg" 
     xmlns:xlink="http://www.w3.org/1999/xlink">
<rect x="0.00" y="0.00" width="800.00" height="800.00" fill="beige" />
<circle cx="376.76" cy="5.00" r="2.00" />
<circle cx="423.24" cy="21.13" r="2.00" />
<circle cx="330.29" cy="44.17" r="2.00" />
<circle cx="469.71" cy="47.14" r="2.00" />
<circle cx="283.82" cy="81.53" r="2.00" />
<circle cx="516.18" cy="86.94" r="2.00" />
<circle cx="562.65" cy="144.79" r="2.00" />
<circle cx="237.35" cy="159.22" r="2.00" />
<circle cx="190.88" cy="220.36" r="2.00" />
<circle cx="609.12" cy="237.02" r="2.00" />
<circle cx="5.00" cy="255.28" r="2.00" />
<circle cx="795.00" cy="264.30" r="2.00" />
<circle cx="655.59" cy="290.73" r="2.00" />
<circle cx="144.41" cy="304.42" r="2.00" />
<circle cx="97.94" cy="361.31" r="2.00" />
<circle cx="702.06" cy="365.03" r="2.00" />
<circle cx="748.53" cy="401.96" r="2.00" />
<circle cx="51.47" cy="405.68" r="2.00" />
</svg>
