<?xml version="1.0"?>
<!-- Generated by SVGo -->
<svg width="800.00" height="800.00"
     xmlns="http://www.w3.org/2000/svg" 
     xmlns:xlink="http://www.w3.org/1999/xlink">
<rect x="0.00" y="0.00" width="800.00" height="800.00" fill="beige" />
<circle cx="400.00" cy="5.00" r="2.00" />
<circle cx="356.11" cy="16.53" r="2.00" />
<circle cx="443.89" cy="25.31" r="2.00" />
<circle cx="487.78" cy="50.77" r="2.00" />
<circle cx="312.22" cy="81.29" r="2.00" />
<circle cx="531.67" cy="92.05" r="2.00" />
<circle cx="268.33" cy="108.84" r="2.00" />
<circle cx="575.56" cy="181.62" r="2.00" />
<circle cx="224.44" cy="183.81" r="2.00" />
<circle cx="619.44" cy="264.71" r="2.00" />
<circle cx="180.56" cy="266.47" r="2.00" />
<circle cx="5.00" cy="282.93" r="2.00" />
<circle cx="795.00" cy="303.46" r="2.00" />
<circle cx="663.33" cy="319.05" r="2.00" />
<circle cx="136.67" cy="328.60" r="2.00" />
<circle cx="707.22" cy="374.15" r="2.00" />
<circle cx="92.78" cy="391.27" r="2.00" />
<circle cx="48.89" cy="418.28" r="2.00" />
<circle cx="751.11" cy="434.08" r="2.00" />
</svg>
