<?xml version="1.0"?>
<!-- Generated by SVGo -->
<svg width="800" height="800"
     xmlns="http://www.w3.org/2000/svg" 
     xmlns:xlink="http://www.w3.org/1999/xlink">
<rect x="0" y="0" width="800" height="800" fill="beige" />
<circle cx="400" cy="5" r="2" />
<circle cx="356" cy="25" r="2" />
<circle cx="443" cy="51" r="2" />
<circle cx="531" cy="81" r="2" />
<circle cx="312" cy="93" r="2" />
<circle cx="268" cy="95" r="2" />
<circle cx="487" cy="105" r="2" />
<circle cx="575" cy="186" r="2" />
<circle cx="224" cy="207" r="2" />
<circle cx="619" cy="262" r="2" />
<circle cx="180" cy="288" r="2" />
<circle cx="5" cy="307" r="2" />
<circle cx="795" cy="313" r="2" />
<circle cx="136" cy="344" r="2" />
<circle cx="663" cy="372" r="2" />
<circle cx="92" cy="400" r="2" />
<circle cx="707" cy="401" r="2" />
<circle cx="48" cy="430" r="2" />
<circle cx="751" cy="434" r="2" />
</svg>
