<?xml version="1.0"?>
<!-- Generated by SVGo -->
<svg width="800.00" height="800.00"
     xmlns="http://www.w3.org/2000/svg" 
     xmlns:xlink="http://www.w3.org/1999/xlink">
<rect x="0.00" y="0.00" width="800.00" height="800.00" fill="beige" />
<circle cx="376.76" cy="5.00" r="2.00" />
<circle cx="423.24" cy="9.51" r="2.00" />
<circle cx="330.29" cy="14.13" r="2.00" />
<circle cx="469.71" cy="43.77" r="2.00" />
<circle cx="283.82" cy="75.13" r="2.00" />
<circle cx="516.18" cy="82.11" r="2.00" />
<circle cx="237.35" cy="144.08" r="2.00" />
<circle cx="562.65" cy="155.25" r="2.00" />
<circle cx="609.12" cy="216.46" r="2.00" />
<circle cx="190.88" cy="218.50" r="2.00" />
<circle cx="5.00" cy="251.26" r="2.00" />
<circle cx="795.00" cy="272.52" r="2.00" />
<circle cx="144.41" cy="287.56" r="2.00" />
<circle cx="655.59" cy="288.95" r="2.00" />
<circle cx="702.06" cy="351.99" r="2.00" />
<circle cx="97.94" cy="357.58" r="2.00" />
<circle cx="51.47" cy="393.45" r="2.00" />
<circle cx="748.53" cy="403.22" r="2.00" />
</svg>
