<?xml version="1.0"?>
<!-- Generated by SVGo -->
<svg width="800.00" height="800.00"
     xmlns="http://www.w3.org/2000/svg" 
     xmlns:xlink="http://www.w3.org/1999/xlink">
<rect x="0.00" y="0.00" width="800.00" height="800.00" fill="beige" />
<circle cx="376.76" cy="5.00" r="2.00" />
<circle cx="423.24" cy="5.22" r="2.00" />
<circle cx="330.29" cy="24.09" r="2.00" />
<circle cx="469.71" cy="34.39" r="2.00" />
<circle cx="516.18" cy="68.88" r="2.00" />
<circle cx="283.82" cy="69.42" r="2.00" />
<circle cx="562.65" cy="138.08" r="2.00" />
<circle cx="237.35" cy="150.55" r="2.00" />
<circle cx="609.12" cy="213.24" r="2.00" />
<circle cx="190.88" cy="220.07" r="2.00" />
<circle cx="5.00" cy="238.72" r="2.00" />
<circle cx="795.00" cy="254.23" r="2.00" />
<circle cx="655.59" cy="277.44" r="2.00" />
<circle cx="144.41" cy="285.79" r="2.00" />
<circle cx="97.94" cy="344.80" r="2.00" />
<circle cx="702.06" cy="346.21" r="2.00" />
<circle cx="748.53" cy="391.97" r="2.00" />
<circle cx="51.47" cy="396.20" r="2.00" />
</svg>
