<?xml version="1.0"?>
<!-- Generated by SVGo -->
<svg width="800.00" height="800.00"
     xmlns="http://www.w3.org/2000/svg" 
     xmlns:xlink="http://www.w3.org/1999/xlink">
<rect x="0.00" y="0.00" width="800.00" height="800.00" fill="beige" />
<circle cx="420.79" cy="5.00" r="2.00" />
<circle cx="379.21" cy="6.38" r="2.00" />
<circle cx="337.63" cy="24.60" r="2.00" />
<circle cx="462.37" cy="41.21" r="2.00" />
<circle cx="296.05" cy="53.13" r="2.00" />
<circle cx="503.95" cy="57.71" r="2.00" />
<circle cx="545.53" cy="142.17" r="2.00" />
<circle cx="254.47" cy="151.33" r="2.00" />
<circle cx="212.89" cy="204.39" r="2.00" />
<circle cx="587.11" cy="206.80" r="2.00" />
<circle cx="171.32" cy="279.33" r="2.00" />
<circle cx="628.68" cy="279.91" r="2.00" />
<circle cx="795.00" cy="312.68" r="2.00" />
<circle cx="5.00" cy="316.69" r="2.00" />
<circle cx="129.74" cy="333.08" r="2.00" />
<circle cx="670.26" cy="362.99" r="2.00" />
<circle cx="88.16" cy="393.24" r="2.00" />
<circle cx="711.84" cy="393.35" r="2.00" />
<circle cx="753.42" cy="436.78" r="2.00" />
<circle cx="46.58" cy="439.99" r="2.00" />
</svg>
