<?xml version="1.0"?>
<!-- Generated by SVGo -->
<svg width="800.00" height="800.00"
     xmlns="http://www.w3.org/2000/svg" 
     xmlns:xlink="http://www.w3.org/1999/xlink">
<rect x="0.00" y="0.00" width="800.00" height="400.00" fill="rgb(35, 79, 158)" />
<rect x="0.00" y="400.00" width="400.00" height="400.00" fill="rgb(173, 68, 20)" />
<rect x="400.00" y="400.00" width="400.00" height="200.00" fill="rgb(164, 229, 151)" />
<rect x="400.00" y="600.00" width="200.00" height="100.00" fill="rgb(245, 137, 186)" />
<rect x="400.00" y="700.00" width="100.00" height="50.00" fill="rgb(243, 78, 216)" />
<rect x="400.00" y="750.00" width="25.00" height="50.00" fill="rgb(182, 170, 156)" />
<rect x="425.00" y="750.00" width="25.00" height="50.00" fill="rgb(249, 208, 42)" />
<rect x="450.00" y="750.00" width="50.00" height="50.00" fill="rgb(73, 242, 108)" />
<rect x="500.00" y="700.00" width="50.00" height="6.25" fill="rgb(25, 220, 239)" />
<rect x="500.00" y="706.25" width="50.00" height="6.25" fill="rgb(246, 224, 72)" />
<rect x="500.00" y="712.50" width="50.00" height="6.25" fill="rgb(192, 9, 158)" />
<rect x="500.00" y="718.75" width="50.00" height="6.25" fill="rgb(70, 49, 61)" />
<rect x="550.00" y="700.00" width="50.00" height="25.00" fill="rgb(57, 135, 171)" />
<rect x="500.00" y="725.00" width="100.00" height="25.00" fill="rgb(6, 121, 116)" />
<rect x="500.00" y="750.00" width="6.25" height="12.50" fill="rgb(215, 69, 238)" />
<rect x="506.25" y="750.00" width="3.12" height="1.56" fill="rgb(29, 1, 129)" />
<rect x="506.25" y="751.56" width="3.12" height="1.56" fill="rgb(254, 24, 40)" />
<rect x="506.25" y="753.12" width="3.12" height="3.12" fill="rgb(183, 122, 77)" />
<rect x="506.25" y="756.25" width="1.56" height="3.12" fill="rgb(202, 210, 78)" />
<rect x="506.25" y="759.38" width="1.56" height="3.12" fill="rgb(49, 209, 215)" />
<rect x="507.81" y="756.25" width="1.56" height="6.25" fill="rgb(3, 146, 146)" />
<rect x="509.38" y="750.00" width="3.12" height="12.50" fill="rgb(147, 2, 105)" />
<rect x="500.00" y="762.50" width="12.50" height="6.25" fill="rgb(80, 182, 85)" />
<rect x="500.00" y="768.75" width="12.50" height="6.25" fill="rgb(117, 34, 125)" />
<rect x="500.00" y="775.00" width="12.50" height="25.00" fill="rgb(5, 45, 76)" />
<rect x="512.50" y="750.00" width="12.50" height="50.00" fill="rgb(147, 208, 43)" />
<rect x="525.00" y="750.00" width="25.00" height="50.00" fill="rgb(109, 172, 20)" />
<rect x="550.00" y="750.00" width="50.00" height="50.00" fill="rgb(187, 189, 96)" />
<rect x="600.00" y="600.00" width="200.00" height="200.00" fill="rgb(86, 148, 90)" />
</svg>
