<?xml version="1.0"?>
<!-- Generated by SVGo -->
<svg width="800.00" height="800.00"
     xmlns="http://www.w3.org/2000/svg" 
     xmlns:xlink="http://www.w3.org/1999/xlink">
<rect x="0.00" y="0.00" width="11.21" height="542.28" fill="rgb(9.573230672081785%, 33.98519518988485%, 74.95471917349141%)" />
<rect x="11.21" y="0.00" width="314.33" height="542.28" fill="rgb(85.36737192979939%, 43.25833465700505%, 42.3426923279229%)" />
<rect x="325.55" y="0.00" width="18.53" height="542.28" fill="rgb(92.18133328395804%, 26.496835315895634%, 16.665482955035834%)" />
<rect x="344.08" y="0.00" width="4.87" height="542.28" fill="rgb(23.835040070254077%, 20.798721369130483%, 73.70824809965336%)" />
<rect x="348.95" y="0.00" width="4.77" height="542.28" fill="rgb(26.798021340495836%, 15.52411540508186%, 79.90374598160645%)" />
<rect x="353.72" y="0.00" width="0.51" height="542.28" fill="rgb(89.58507294472882%, 23.352722970025102%, 86.79112274001483%)" />
<rect x="354.23" y="0.00" width="3.48" height="542.28" fill="rgb(46.73407424533024%, 44.322835512975786%, 91.39958114780022%)" />
<rect x="357.71" y="0.00" width="14.35" height="542.28" fill="rgb(2.2211169421937527%, 24.596137151782894%, 1.9168869932885135%)" />
<rect x="372.06" y="0.00" width="101.64" height="542.28" fill="rgb(79.6052329631368%, 66.8035117062077%, 37.89805565263176%)" />
<rect x="473.70" y="0.00" width="150.41" height="13.76" fill="rgb(58.05977619697818%, 85.57355169131381%, 71.48622490431033%)" />
<rect x="473.70" y="13.76" width="21.41" height="528.52" fill="rgb(51.816055884597056%, 0.2404566489310216%, 10.94435097093588%)" />
<rect x="495.11" y="13.76" width="18.63" height="528.52" fill="rgb(56.30038399975908%, 54.89432580957617%, 0.529447571585608%)" />
<rect x="513.74" y="13.76" width="61.06" height="69.00" fill="rgb(50.10365747993454%, 65.13005545756388%, 77.39054347130843%)" />
<rect x="513.74" y="82.76" width="61.06" height="459.52" fill="rgb(51.65941356073993%, 3.8117195809146214%, 89.55727687564625%)" />
<rect x="574.80" y="13.76" width="49.31" height="528.52" fill="rgb(66.47394367456072%, 24.771905603452847%, 88.57403233752555%)" />
<rect x="624.11" y="0.00" width="3.49" height="542.28" fill="rgb(4.243421898430611%, 84.16669613338273%, 1.1307201554222241%)" />
<rect x="627.60" y="0.00" width="172.40" height="542.28" fill="rgb(98.42749488152077%, 52.515512494464176%, 3.405348829155716%)" />
<rect x="0.00" y="542.28" width="660.77" height="105.61" fill="rgb(92.48582261461227%, 86.64192327317036%, 27.937813944349553%)" />
<rect x="660.77" y="542.28" width="139.23" height="105.61" fill="rgb(1.1267737758584704%, 92.41051252551645%, 91.19746889005701%)" />
<rect x="0.00" y="647.90" width="800.00" height="152.10" fill="rgb(27.83075838567191%, 56.151768994903314%, 92.64661289710628%)" />
</svg>
