<?xml version="1.0"?>
<!-- Generated by SVGo -->
<svg width="800.00" height="800.00"
     xmlns="http://www.w3.org/2000/svg" 
     xmlns:xlink="http://www.w3.org/1999/xlink">
<rect x="0.00" y="0.00" width="35.81" height="261.92" fill="rgb(161, 144, 108)" />
<rect x="0.00" y="261.92" width="35.81" height="78.41" fill="rgb(5, 25, 96)" />
<rect x="0.00" y="340.33" width="35.81" height="19.63" fill="rgb(244, 208, 136)" />
<rect x="35.81" y="0.00" width="132.67" height="359.96" fill="rgb(218, 166, 72)" />
<rect x="168.48" y="0.00" width="446.52" height="115.15" fill="rgb(90, 218, 232)" />
<rect x="168.48" y="115.15" width="332.31" height="244.81" fill="rgb(176, 215, 40)" />
<rect x="500.79" y="115.15" width="77.69" height="244.81" fill="rgb(126, 10, 204)" />
<rect x="578.48" y="115.15" width="36.52" height="244.81" fill="rgb(78, 8, 18)" />
<rect x="0.00" y="359.96" width="615.00" height="72.47" fill="rgb(196, 170, 178)" />
<rect x="0.00" y="432.44" width="615.00" height="19.66" fill="rgb(123, 98, 239)" />
<rect x="0.00" y="452.10" width="615.00" height="347.90" fill="rgb(146, 159, 212)" />
<rect x="615.00" y="0.00" width="110.49" height="632.82" fill="rgb(122, 172, 54)" />
<rect x="725.49" y="0.00" width="49.08" height="632.82" fill="rgb(91, 17, 123)" />
<rect x="774.57" y="0.00" width="25.43" height="632.82" fill="rgb(35, 182, 175)" />
<rect x="615.00" y="632.82" width="185.00" height="167.18" fill="rgb(156, 91, 104)" />
</svg>
