<?xml version="1.0"?>
<!-- Generated by SVGo -->
<svg width="800.00" height="800.00"
     xmlns="http://www.w3.org/2000/svg" 
     xmlns:xlink="http://www.w3.org/1999/xlink">
<rect x="0.00" y="0.00" width="4.47" height="241.33" fill="rgb(91.60474636764042%, 93.43561576155896%, 47.874000810799366%)" />
<rect x="4.47" y="0.00" width="0.33" height="241.33" fill="rgb(71.83061348294231%, 35.442234527595595%, 40.29773584114933%)" />
<rect x="4.80" y="0.00" width="0.97" height="126.77" fill="rgb(76.94716425073007%, 11.768880465195586%, 29.15187318882968%)" />
<rect x="4.80" y="126.77" width="0.14" height="43.57" fill="rgb(80.7437368463788%, 48.80436801034912%, 17.862065382843866%)" />
<rect x="4.94" y="126.77" width="0.65" height="43.57" fill="rgb(82.16377609210767%, 10.242559143854281%, 50.69122551766527%)" />
<rect x="5.59" y="126.77" width="0.18" height="43.57" fill="rgb(49.146656348277666%, 98.87664290081032%, 48.500297939146414%)" />
<rect x="5.76" y="0.00" width="0.38" height="170.34" fill="rgb(67.65786748957979%, 39.62109320894093%, 14.706180647583771%)" />
<rect x="4.80" y="170.34" width="1.06" height="42.40" fill="rgb(31.118807078800575%, 82.50232360263442%, 55.96732547672938%)" />
<rect x="4.80" y="212.74" width="1.06" height="18.83" fill="rgb(81.51200930548704%, 74.76292676084651%, 30.288445883196836%)" />
<rect x="4.80" y="231.57" width="1.06" height="9.76" fill="rgb(59.231349435041004%, 7.5453628008081015%, 26.90556951684106%)" />
<rect x="5.86" y="170.34" width="0.28" height="70.99" fill="rgb(73.62187406222694%, 3.554467575479688%, 96.6549367405293%)" />
<rect x="6.14" y="0.00" width="22.75" height="241.33" fill="rgb(66.33183606165201%, 68.92207446284566%, 6.926528951718677%)" />
<rect x="0.00" y="241.33" width="6.94" height="2.10" fill="rgb(97.7775599793831%, 4.760788581748945%, 96.3952733198716%)" />
<rect x="0.00" y="243.43" width="6.94" height="6.19" fill="rgb(12.314570944300334%, 40.218663827395275%, 88.22979348565173%)" />
<rect x="0.00" y="249.62" width="6.94" height="0.15" fill="rgb(3.372442840089735%, 17.40256547743104%, 90.47987967924865%)" />
<rect x="0.00" y="249.77" width="6.94" height="0.34" fill="rgb(65.47971314626348%, 87.90338560495017%, 25.0987778155466%)" />
<rect x="0.00" y="250.11" width="6.94" height="5.21" fill="rgb(68.7519348080616%, 88.70842989579354%, 51.737974267453815%)" />
<rect x="0.00" y="255.32" width="0.51" height="1.35" fill="rgb(32.969761956720674%, 20.867710885306707%, 23.167182955342046%)" />
<rect x="0.51" y="255.32" width="6.44" height="1.35" fill="rgb(63.6422608154774%, 61.3409047622001%, 78.34197011378585%)" />
<rect x="6.94" y="241.33" width="16.26" height="15.34" fill="rgb(30.824799211986182%, 84.62071765824832%, 98.35632268844363%)" />
<rect x="0.00" y="256.67" width="13.20" height="0.25" fill="rgb(92.83066504927856%, 69.94360044501795%, 93.140273492357%)" />
<rect x="0.00" y="256.92" width="13.20" height="0.12" fill="rgb(55.20218571762936%, 93.33999100570847%, 49.044446068139926%)" />
<rect x="0.00" y="257.04" width="13.20" height="6.32" fill="rgb(22.51168995987879%, 48.94998393494611%, 58.39247165907793%)" />
<rect x="0.00" y="263.36" width="13.20" height="1.36" fill="rgb(11.655933864782996%, 43.86190991278568%, 25.880726308017106%)" />
<rect x="0.00" y="264.72" width="13.20" height="12.65" fill="rgb(29.969596543750555%, 70.59537314904938%, 51.55531894524109%)" />
<rect x="13.20" y="256.67" width="1.80" height="20.70" fill="rgb(87.25632465572208%, 62.94613516131405%, 77.24080461041962%)" />
<rect x="15.00" y="256.67" width="8.20" height="10.95" fill="rgb(51.22280868737893%, 14.912870818754213%, 71.71552092692139%)" />
<rect x="15.00" y="267.62" width="8.20" height="9.76" fill="rgb(69.84220758894467%, 84.227512133252%, 47.07508241218963%)" />
<rect x="0.00" y="277.37" width="23.20" height="42.38" fill="rgb(46.48057246734648%, 61.41762647123543%, 4.15832337034582%)" />
<rect x="0.00" y="319.75" width="23.20" height="36.77" fill="rgb(98.12496811832187%, 6.535849656833857%, 66.00633288149844%)" />
<rect x="23.20" y="241.33" width="5.70" height="115.19" fill="rgb(87.69570612644188%, 55.484389560709644%, 7.322474812104572%)" />
<rect x="28.90" y="0.00" width="633.11" height="356.52" fill="rgb(84.46952222173407%, 21.198431464006855%, 7.225616901948867%)" />
<rect x="0.00" y="356.52" width="662.01" height="443.48" fill="rgb(52.93406088227095%, 65.35302810874668%, 43.427360184600126%)" />
<rect x="662.01" y="0.00" width="61.56" height="375.13" fill="rgb(82.17591731186855%, 75.72941162462008%, 63.50667986023946%)" />
<rect x="723.57" y="0.00" width="76.43" height="375.13" fill="rgb(48.17928392256901%, 80.61835762327497%, 21.230424469282557%)" />
<rect x="662.01" y="375.13" width="43.82" height="0.01" fill="rgb(92.98769345867377%, 63.06870625450753%, 50.9731640839187%)" />
<rect x="662.01" y="375.13" width="43.82" height="3.99" fill="rgb(17.65154267671321%, 82.19614555382313%, 0.26575521508046784%)" />
<rect x="662.01" y="379.13" width="11.79" height="3.32" fill="rgb(60.32277660907378%, 17.113708901538825%, 71.85087222022555%)" />
<rect x="662.01" y="382.45" width="5.17" height="0.51" fill="rgb(15.858485627490829%, 49.38640263008304%, 47.48637973610958%)" />
<rect x="667.18" y="382.45" width="0.16" height="0.51" fill="rgb(87.6909607766545%, 18.487506549690796%, 6.827779820192557%)" />
<rect x="667.34" y="382.45" width="0.03" height="0.51" fill="rgb(23.971122190695198%, 52.97736591586924%, 4.940640029475103%)" />
<rect x="667.37" y="382.45" width="0.24" height="0.51" fill="rgb(36.374784663809116%, 48.43727933557634%, 24.413242003850215%)" />
<rect x="667.61" y="382.45" width="6.19" height="0.51" fill="rgb(95.51148184863457%, 55.92899690855273%, 99.28429896712801%)" />
<rect x="673.80" y="379.13" width="32.03" height="3.83" fill="rgb(69.68690221987988%, 21.801942032003925%, 19.78005426709461%)" />
<rect x="662.01" y="382.96" width="2.23" height="12.80" fill="rgb(22.304703747117337%, 91.77849232940153%, 45.79346490881979%)" />
<rect x="664.24" y="382.96" width="41.60" height="2.26" fill="rgb(23.803805034566107%, 16.328653452941023%, 79.62883412987186%)" />
<rect x="664.24" y="385.22" width="41.60" height="10.54" fill="rgb(34.12403555688393%, 66.06648163573828%, 36.868795028190156%)" />
<rect x="662.01" y="395.75" width="0.75" height="14.60" fill="rgb(52.57404959015663%, 57.76414833897616%, 51.929524623297766%)" />
<rect x="662.76" y="395.75" width="0.05" height="3.07" fill="rgb(97.56050683685336%, 51.299551855989%, 37.86963563935116%)" />
<rect x="662.80" y="395.75" width="0.04" height="0.03" fill="rgb(64.53143554929166%, 37.43957298018564%, 46.5784783976211%)" />
<rect x="662.80" y="395.79" width="0.01" height="0.06" fill="rgb(74.39269006816511%, 26.981051903431265%, 63.92024152356394%)" />
<rect x="662.81" y="395.79" width="0.00" height="0.06" fill="rgb(88.86718648360274%, 64.40235515254305%, 36.43188016907546%)" />
<rect x="662.82" y="395.79" width="0.02" height="0.06" fill="rgb(27.047788719667864%, 44.77740896938599%, 92.54180928822834%)" />
<rect x="662.84" y="395.79" width="0.00" height="0.02" fill="rgb(4.536985053699779%, 96.76053051924647%, 84.71637751306201%)" />
<rect x="662.84" y="395.79" width="0.00" height="0.02" fill="rgb(20.442986385981126%, 94.91218572326187%, 56.58616872437744%)" />
<rect x="662.84" y="395.81" width="0.00" height="0.01" fill="rgb(67.25775064446793%, 40.278649125588146%, 72.49220574695275%)" />
<rect x="662.84" y="395.82" width="0.00" height="0.00" fill="rgb(89.58589609366233%, 87.94354339045836%, 30.205500848498563%)" />
<rect x="662.84" y="395.82" width="0.00" height="0.00" fill="rgb(79.74615312219673%, 33.314935803041415%, 33.522490805064365%)" />
<rect x="662.84" y="395.82" width="0.00" height="0.00" fill="rgb(41.70820686367619%, 90.88899142712789%, 8.537618626141967%)" />
<rect x="662.84" y="395.82" width="0.00" height="0.00" fill="rgb(4.401539672991645%, 33.52582705330058%, 66.62793747198118%)" />
<rect x="662.84" y="395.82" width="0.00" height="0.00" fill="rgb(15.670156535513332%, 16.561612039803656%, 86.71151464416764%)" />
<rect x="662.84" y="395.82" width="0.00" height="0.00" fill="rgb(54.51235797478841%, 47.70079767352499%, 79.46940292046037%)" />
<rect x="662.84" y="395.82" width="0.00" height="0.00" fill="rgb(13.317002774754702%, 31.33858941655624%, 69.30502963044701%)" />
<rect x="662.84" y="395.82" width="0.00" height="0.00" fill="rgb(61.09572646922098%, 78.11957625547963%, 15.213641083569044%)" />
<rect x="662.84" y="395.82" width="0.00" height="0.00" fill="rgb(71.07470612829209%, 38.09302409024357%, 40.97098626069414%)" />
<rect x="662.84" y="395.82" width="0.00" height="0.00" fill="rgb(20.844885987025446%, 87.98525600781245%, 54.76109315437287%)" />
<rect x="662.84" y="395.82" width="0.00" height="0.00" fill="rgb(43.21909779916589%, 51.433815064582966%, 80.08780830816548%)" />
<rect x="662.84" y="395.82" width="0.00" height="0.00" fill="rgb(27.62331869676848%, 9.381697730059592%, 90.3004196469319%)" />
<rect x="662.84" y="395.82" width="0.00" height="0.00" fill="rgb(24.256793326316267%, 80.09507406260614%, 16.508792320686304%)" />
<rect x="662.84" y="395.82" width="0.00" height="0.00" fill="rgb(61.00286481489684%, 36.49554461273158%, 88.09109200934051%)" />
<rect x="662.84" y="395.82" width="0.00" height="0.00" fill="rgb(52.507389933997885%, 48.34813827040119%, 26.16703983549476%)" />
<rect x="662.84" y="395.82" width="0.00" height="0.00" fill="rgb(15.480292265557605%, 5.2805369406113165%, 8.650538658800302%)" />
<rect x="662.84" y="395.82" width="0.00" height="0.00" fill="rgb(92.25154911271648%, 98.04244528356554%, 35.40411039555615%)" />
<rect x="662.84" y="395.82" width="0.00" height="0.00" fill="rgb(79.78504096707417%, 45.807633532503544%, 7.7743611121504745%)" />
<rect x="662.84" y="395.82" width="0.00" height="0.00" fill="rgb(86.16860512952688%, 20.56021766065609%, 59.58995773264871%)" />
<rect x="662.84" y="395.82" width="0.00" height="0.00" fill="rgb(6.596264015170611%, 4.8598304205177225%, 84.09720628245203%)" />
<rect x="662.84" y="395.82" width="0.00" height="0.00" fill="rgb(88.877125711742%, 84.98179196087499%, 1.8651673876313255%)" />
<rect x="662.84" y="395.82" width="0.00" height="0.00" fill="rgb(21.145921919439985%, 66.0997049317467%, 91.63254630617188%)" />
<rect x="662.84" y="395.82" width="0.00" height="0.00" fill="rgb(93.71861737700793%, 76.83629268117944%, 62.17178432875278%)" />
<rect x="662.84" y="395.82" width="0.00" height="0.00" fill="rgb(48.38422160635632%, 37.92581250786448%, 23.66047328039539%)" />
<rect x="662.84" y="395.82" width="0.00" height="0.00" fill="rgb(41.758686188431376%, 43.478107183766475%, 22.271357409276973%)" />
<rect x="662.84" y="395.82" width="0.00" height="0.00" fill="rgb(11.5441005038041%, 73.07194977043285%, 62.40606235437443%)" />
<rect x="662.84" y="395.82" width="0.00" height="0.00" fill="rgb(92.14319019167424%, 65.9573705707191%, 21.71970947843463%)" />
<rect x="662.84" y="395.82" width="0.00" height="0.00" fill="rgb(6.811060916691317%, 52.66512655633042%, 18.25526383798213%)" />
<rect x="662.84" y="395.82" width="0.00" height="0.00" fill="rgb(11.603041846392765%, 25.257759722733176%, 90.46814791571438%)" />
<rect x="662.84" y="395.83" width="0.00" height="0.00" fill="rgb(80.78324851487278%, 96.81988559427185%, 53.2293612274222%)" />
<rect x="662.84" y="395.83" width="0.00" height="0.00" fill="rgb(63.55334066701646%, 7.31391334172088%, 37.26057646480373%)" />
<rect x="662.84" y="395.79" width="0.00" height="0.01" fill="rgb(69.41336050723365%, 89.79876694278059%, 88.33597444567349%)" />
<rect x="662.84" y="395.80" width="0.00" height="0.03" fill="rgb(48.61625825097812%, 2.967653604220399%, 54.68884171351062%)" />
<rect x="662.84" y="395.79" width="0.00" height="0.04" fill="rgb(59.1536167328718%, 21.039442781900476%, 41.467559483663074%)" />
<rect x="662.84" y="395.83" width="0.00" height="0.01" fill="rgb(86.89096409458591%, 22.546285670529066%, 91.54868398992265%)" />
<rect x="662.84" y="395.83" width="0.00" height="0.01" fill="rgb(11.457929428158439%, 25.44154842142259%, 69.38078723060731%)" />
<rect x="662.80" y="395.84" width="0.00" height="0.03" fill="rgb(59.89348359461114%, 98.34927437350312%, 38.20611223926239%)" />
<rect x="662.80" y="395.84" width="0.04" height="0.00" fill="rgb(69.0485677960845%, 56.32110458324178%, 47.10968640111673%)" />
<rect x="662.80" y="395.84" width="0.02" height="0.02" fill="rgb(0.8076512139247939%, 16.4364914738048%, 21.771507985454956%)" />
<rect x="662.82" y="395.84" width="0.02" height="0.02" fill="rgb(78.77014749968994%, 84.9601527240118%, 97.11282770642335%)" />
<rect x="662.80" y="395.86" width="0.04" height="0.01" fill="rgb(47.13930799847429%, 81.6322885955307%, 15.36459508107626%)" />
<rect x="662.80" y="395.87" width="0.04" height="0.05" fill="rgb(84.72181314176675%, 5.3172263694434285%, 75.37120930705984%)" />
<rect x="662.80" y="395.92" width="0.01" height="0.20" fill="rgb(71.71215321443182%, 74.84248820509436%, 46.078354378276295%)" />
<rect x="662.80" y="396.12" width="0.00" height="0.19" fill="rgb(68.4148220410651%, 27.873336870521786%, 98.54287600745292%)" />
<rect x="662.80" y="396.12" width="0.01" height="0.19" fill="rgb(40.94099256401339%, 64.26337735223655%, 62.16038539003759%)" />
<rect x="662.81" y="395.92" width="0.02" height="0.39" fill="rgb(86.2569239434678%, 62.61322262297614%, 98.73881820506779%)" />
<rect x="662.83" y="395.92" width="0.01" height="0.39" fill="rgb(47.24257706815466%, 88.79198718128676%, 54.626947582563766%)" />
<rect x="662.80" y="396.31" width="0.04" height="0.12" fill="rgb(64.22168863787707%, 50.30649156015554%, 19.881292875932857%)" />
<rect x="662.80" y="396.43" width="0.04" height="0.06" fill="rgb(67.45272572388104%, 12.195913212645634%, 12.05476375591226%)" />
<rect x="662.80" y="396.49" width="0.04" height="0.12" fill="rgb(99.7279721130135%, 96.6610797441316%, 85.01154336541268%)" />
<rect x="662.80" y="396.60" width="0.04" height="0.02" fill="rgb(50.520361623966956%, 6.517700019510185%, 57.82617435329417%)" />
<rect x="662.80" y="396.63" width="0.04" height="0.00" fill="rgb(35.23853038022017%, 79.46065222273793%, 19.51769600879909%)" />
<rect x="662.80" y="396.63" width="0.01" height="0.01" fill="rgb(51.79441602758894%, 64.33188687217107%, 40.12340982641817%)" />
<rect x="662.80" y="396.64" width="0.01" height="0.00" fill="rgb(32.38878619557165%, 69.7293856460494%, 93.60693925487888%)" />
<rect x="662.81" y="396.63" width="0.01" height="0.01" fill="rgb(44.99263874786348%, 93.14954314196487%, 18.877853868151327%)" />
<rect x="662.82" y="396.63" width="0.02" height="0.01" fill="rgb(43.49593676641509%, 55.28524563108925%, 58.367759139276906%)" />
<rect x="662.82" y="396.64" width="0.02" height="0.00" fill="rgb(88.72938387252243%, 17.933612729957368%, 9.411070447694739%)" />
<rect x="662.84" y="396.64" width="0.00" height="0.00" fill="rgb(43.66716903701029%, 31.77463294648578%, 63.23271558192998%)" />
<rect x="662.84" y="396.64" width="0.00" height="0.00" fill="rgb(98.56255086559877%, 4.23477873177012%, 53.13388218724272%)" />
<rect x="662.80" y="396.64" width="0.01" height="0.02" fill="rgb(0.4123802437056416%, 73.04417463116526%, 63.25286810303591%)" />
<rect x="662.82" y="396.64" width="0.03" height="0.02" fill="rgb(27.667061965146882%, 45.3734095221086%, 21.661758939728426%)" />
<rect x="662.82" y="396.66" width="0.03" height="0.01" fill="rgb(0.3266350057915738%, 86.00340433324338%, 60.92374857290269%)" />
<rect x="662.80" y="396.66" width="0.04" height="2.16" fill="rgb(28.090705590235977%, 13.058640974758848%, 60.35431059080184%)" />
<rect x="662.76" y="398.82" width="0.08" height="11.53" fill="rgb(63.51650144147627%, 25.08725728085832%, 54.86428254112443%)" />
<rect x="662.84" y="395.75" width="0.10" height="14.60" fill="rgb(37.03424401178478%, 50.23866479271688%, 32.587904107797385%)" />
<rect x="662.94" y="395.75" width="0.17" height="14.60" fill="rgb(92.11833041934186%, 21.19713757570276%, 44.54229628042105%)" />
<rect x="663.11" y="395.75" width="0.08" height="1.33" fill="rgb(61.05099648262101%, 0.8419580150396854%, 12.790356424312293%)" />
<rect x="663.11" y="397.08" width="0.00" height="8.10" fill="rgb(99.56898574169011%, 17.927628835649536%, 85.39378373591639%)" />
<rect x="663.11" y="397.08" width="0.04" height="4.37" fill="rgb(34.70542245046714%, 69.23843421103881%, 76.31350941713721%)" />
<rect x="663.15" y="397.08" width="0.01" height="3.18" fill="rgb(28.505133271423528%, 94.9420622491898%, 63.73937266877687%)" />
<rect x="663.16" y="397.08" width="0.01" height="3.18" fill="rgb(71.49562369646492%, 70.90260226948826%, 87.9519691593991%)" />
<rect x="663.15" y="400.26" width="0.01" height="1.19" fill="rgb(39.52196289220884%, 3.6801549118404893%, 19.478358321100725%)" />
<rect x="663.11" y="401.46" width="0.02" height="2.35" fill="rgb(14.008723327086573%, 59.16969412099776%, 22.017709315974663%)" />
<rect x="663.11" y="403.80" width="0.02" height="1.03" fill="rgb(90.22779450615054%, 42.89525048120219%, 2.747978334389547%)" />
<rect x="663.13" y="401.46" width="0.04" height="3.38" fill="rgb(70.34405533444867%, 28.289349111176826%, 62.895938800381735%)" />
<rect x="663.11" y="404.83" width="0.05" height="0.34" fill="rgb(35.481025587478655%, 65.72635637976421%, 26.16503533882224%)" />
<rect x="663.17" y="397.08" width="0.00" height="4.62" fill="rgb(96.27680701234988%, 41.96936324180262%, 60.08246608006195%)" />
<rect x="663.17" y="401.70" width="0.00" height="0.34" fill="rgb(22.493155541988628%, 31.70715881628571%, 75.1343379193682%)" />
<rect x="663.17" y="402.05" width="0.00" height="0.93" fill="rgb(94.4484488776787%, 87.45824131559553%, 17.877360873224628%)" />
<rect x="663.17" y="397.08" width="0.02" height="1.17" fill="rgb(88.95834410666806%, 24.372850878477585%, 56.56267932804827%)" />
<rect x="663.19" y="397.08" width="0.00" height="1.17" fill="rgb(42.320268341036574%, 38.28592367172081%, 23.35478997037735%)" />
<rect x="663.17" y="398.25" width="0.02" height="0.85" fill="rgb(21.0543710190301%, 51.376697401249785%, 90.67976371734649%)" />
<rect x="663.17" y="399.10" width="0.02" height="3.88" fill="rgb(14.183780277243626%, 43.073290537236524%, 45.7632788464897%)" />
<rect x="663.19" y="399.10" width="0.00" height="3.88" fill="rgb(91.0826161811014%, 28.93016973047159%, 8.873481804844682%)" />
<rect x="663.19" y="399.10" width="0.00" height="3.88" fill="rgb(39.7236450470407%, 62.52834774088658%, 43.536759814035776%)" />
<rect x="663.19" y="399.10" width="0.00" height="3.88" fill="rgb(56.5123184146781%, 8.382716282584587%, 36.571313505514986%)" />
<rect x="663.19" y="399.10" width="0.00" height="3.88" fill="rgb(29.67771196282737%, 98.69966961482633%, 58.27284825387855%)" />
<rect x="663.17" y="402.98" width="0.02" height="2.20" fill="rgb(9.189713391304535%, 78.74121105902539%, 73.40152043505913%)" />
<rect x="663.11" y="405.18" width="0.01" height="2.08" fill="rgb(33.63802991163169%, 57.23934105061076%, 12.893941222059635%)" />
<rect x="663.12" y="405.18" width="0.00" height="2.08" fill="rgb(19.049583699843787%, 65.19546702881354%, 65.44107070091437%)" />
<rect x="663.12" y="405.18" width="0.00" height="2.08" fill="rgb(66.04753365059103%, 93.36522962333909%, 57.648972444734994%)" />
<rect x="663.12" y="405.18" width="0.00" height="2.08" fill="rgb(78.15234243312075%, 14.566480927020532%, 82.11704396711315%)" />
<rect x="663.11" y="407.26" width="0.01" height="0.46" fill="rgb(73.45099348332681%, 72.33092121850075%, 23.576914895912065%)" />
<rect x="663.11" y="407.72" width="0.00" height="0.09" fill="rgb(10.682299315062751%, 11.512959746689198%, 67.94060133058922%)" />
<rect x="663.11" y="407.72" width="0.01" height="0.09" fill="rgb(48.70916148194648%, 51.33760641526076%, 38.428009344093184%)" />
<rect x="663.11" y="407.81" width="0.00" height="0.42" fill="rgb(90.52697383675621%, 37.65562782020292%, 31.773040042923956%)" />
<rect x="663.11" y="408.23" width="0.00" height="0.09" fill="rgb(75.10192590008829%, 55.38618507823996%, 83.86605005468836%)" />
<rect x="663.11" y="407.81" width="0.00" height="0.36" fill="rgb(69.41243610412576%, 58.01529607131355%, 39.7028770406053%)" />
<rect x="663.11" y="407.81" width="0.00" height="0.36" fill="rgb(98.583536619613%, 30.339567440551768%, 25.547766244463766%)" />
<rect x="663.12" y="407.81" width="0.00" height="0.05" fill="rgb(51.22345754505987%, 78.85821064780752%, 90.40738657917021%)" />
<rect x="663.12" y="407.86" width="0.00" height="0.31" fill="rgb(96.02620833391889%, 57.944442969949314%, 34.60944084185566%)" />
<rect x="663.11" y="408.17" width="0.00" height="0.10" fill="rgb(83.77685669750863%, 86.61072334262842%, 44.73368165485711%)" />
<rect x="663.11" y="408.26" width="0.00" height="0.05" fill="rgb(12.909197798216695%, 39.23510453792141%, 97.78347819685553%)" />
<rect x="663.12" y="408.17" width="0.00" height="0.01" fill="rgb(30.4284853075419%, 67.23621523919448%, 17.235363584810067%)" />
<rect x="663.12" y="408.18" width="0.00" height="0.01" fill="rgb(32.80666056361368%, 31.428472327056912%, 45.86750240934808%)" />
<rect x="663.12" y="408.19" width="0.00" height="0.07" fill="rgb(40.72991167316717%, 8.007980652847642%, 87.4813385404527%)" />
<rect x="663.12" y="408.26" width="0.00" height="0.03" fill="rgb(58.8361603476151%, 34.150803246253005%, 89.01893150050375%)" />
<rect x="663.12" y="408.29" width="0.00" height="0.03" fill="rgb(98.06898611620899%, 38.081234207792335%, 38.5937772327196%)" />
<rect x="663.12" y="408.17" width="0.00" height="0.08" fill="rgb(36.29236971799801%, 74.12341003136252%, 73.77076541762979%)" />
<rect x="663.12" y="408.17" width="0.00" height="0.08" fill="rgb(8.437937992999446%, 20.193147250618637%, 81.85723328780145%)" />
<rect x="663.12" y="408.17" width="0.00" height="0.08" fill="rgb(38.41418737233314%, 49.63925621532357%, 33.143389156316815%)" />
<rect x="663.12" y="408.17" width="0.00" height="0.01" fill="rgb(35.344998763317506%, 98.39324851255529%, 19.34047298378197%)" />
<rect x="663.12" y="408.17" width="0.00" height="0.01" fill="rgb(21.713659431112735%, 92.0840212362387%, 69.43409119622032%)" />
<rect x="663.12" y="408.18" width="0.00" height="0.07" fill="rgb(85.74431406679487%, 65.87108699766345%, 77.04683988193194%)" />
<rect x="663.12" y="408.25" width="0.00" height="0.07" fill="rgb(55.35342232067091%, 78.28461601152628%, 31.294838446270955%)" />
<rect x="663.12" y="408.17" width="0.00" height="0.15" fill="rgb(39.728870716310844%, 60.080412264130864%, 80.5321269126806%)" />
<rect x="663.11" y="408.32" width="0.01" height="0.74" fill="rgb(86.37978356177949%, 48.899469027545884%, 81.64749301333033%)" />
<rect x="663.12" y="405.18" width="0.07" height="3.88" fill="rgb(72.33323105371355%, 33.745978557293824%, 69.65552662538386%)" />
<rect x="663.11" y="409.06" width="0.08" height="1.30" fill="rgb(24.800792227185326%, 27.34911135114102%, 50.2564930455823%)" />
<rect x="663.19" y="395.75" width="5.15" height="14.60" fill="rgb(62.28982929012683%, 16.418666707646967%, 34.27499731739716%)" />
<rect x="662.01" y="410.35" width="6.13" height="14.10" fill="rgb(47.479895603872926%, 7.7990555129405905%, 10.035179876978969%)" />
<rect x="668.14" y="410.35" width="0.19" height="14.10" fill="rgb(65.36733396405798%, 97.72206024207304%, 70.72871249004874%)" />
<rect x="668.33" y="395.75" width="37.50" height="9.84" fill="rgb(71.5249158761644%, 70.97500350753047%, 38.51503735090313%)" />
<rect x="668.33" y="405.60" width="37.50" height="15.25" fill="rgb(40.54241625684047%, 64.89925515876018%, 36.511963995703006%)" />
<rect x="668.33" y="420.84" width="36.53" height="3.61" fill="rgb(58.837054787762874%, 43.912684659929305%, 89.5232379279735%)" />
<rect x="704.86" y="420.84" width="0.45" height="3.61" fill="rgb(78.71695471822109%, 17.13182944527612%, 24.818883591299958%)" />
<rect x="705.31" y="420.84" width="0.01" height="0.68" fill="rgb(46.518907603101944%, 12.808672808540916%, 30.239419456358952%)" />
<rect x="705.31" y="421.52" width="0.01" height="0.23" fill="rgb(58.55965242953104%, 77.16504759152053%, 60.93609646081127%)" />
<rect x="705.32" y="421.52" width="0.00" height="0.23" fill="rgb(89.27442961769918%, 68.48644817728056%, 58.1755209258788%)" />
<rect x="705.32" y="421.52" width="0.00" height="0.02" fill="rgb(59.160784653087696%, 99.64388669262661%, 91.77708149197193%)" />
<rect x="705.32" y="421.54" width="0.00" height="0.21" fill="rgb(57.34201428982079%, 64.82330266656504%, 28.849209138753935%)" />
<rect x="705.32" y="421.54" width="0.00" height="0.21" fill="rgb(34.40348651644021%, 30.158961757880064%, 4.595990445943992%)" />
<rect x="705.31" y="421.75" width="0.01" height="0.06" fill="rgb(79.37320732379042%, 94.50643585137547%, 85.0382911037459%)" />
<rect x="705.32" y="420.84" width="0.17" height="0.97" fill="rgb(19.506315488956155%, 30.19374254877953%, 48.23858136384939%)" />
<rect x="705.31" y="421.81" width="0.05" height="0.47" fill="rgb(38.06437837273124%, 83.71528453335088%, 90.36651019444409%)" />
<rect x="705.31" y="422.28" width="0.05" height="0.47" fill="rgb(91.87255659836248%, 58.92614314998069%, 99.68741569923432%)" />
<rect x="705.31" y="422.75" width="0.05" height="0.00" fill="rgb(67.94578146759054%, 17.93600473431108%, 83.14097506435262%)" />
<rect x="705.31" y="422.75" width="0.05" height="0.04" fill="rgb(9.921211380304499%, 94.20300207224643%, 5.210390626120084%)" />
<rect x="705.31" y="422.78" width="0.05" height="0.04" fill="rgb(56.04504080328409%, 7.044211533063565%, 58.962049511224826%)" />
<rect x="705.31" y="422.82" width="0.05" height="0.01" fill="rgb(16.23182597477236%, 22.046796892564863%, 70.1232921912256%)" />
<rect x="705.31" y="422.83" width="0.05" height="0.00" fill="rgb(8.118137444906575%, 18.049669192394635%, 91.88484819984203%)" />
<rect x="705.31" y="422.84" width="0.05" height="0.15" fill="rgb(80.4887989414823%, 97.18557487487656%, 28.473103864063987%)" />
<rect x="705.36" y="421.81" width="0.01" height="0.79" fill="rgb(38.25801294760942%, 37.73480053451605%, 28.789076705360095%)" />
<rect x="705.36" y="422.60" width="0.01" height="0.35" fill="rgb(19.54568827800438%, 28.7739649061835%, 2.4635707684729513%)" />
<rect x="705.37" y="422.60" width="0.00" height="0.35" fill="rgb(85.8760931113293%, 35.82046581285912%, 97.16578367865056%)" />
<rect x="705.36" y="422.95" width="0.01" height="0.04" fill="rgb(14.061880259394746%, 89.30013745192488%, 77.79776377037224%)" />
<rect x="705.37" y="421.81" width="0.01" height="1.18" fill="rgb(7.80246025149353%, 46.88999199872966%, 51.803374900835884%)" />
<rect x="705.38" y="421.81" width="0.04" height="1.18" fill="rgb(36.6033846833218%, 89.76422621289967%, 44.853304975290335%)" />
<rect x="705.42" y="421.81" width="0.01" height="1.18" fill="rgb(83.96490487815962%, 8.72179719721585%, 75.00159604712556%)" />
<rect x="705.44" y="421.81" width="0.03" height="1.18" fill="rgb(27.714424054428438%, 84.97851557814893%, 1.9382501975918458%)" />
<rect x="705.46" y="421.81" width="0.02" height="1.18" fill="rgb(18.274445626549507%, 55.20795072327292%, 73.49542724689019%)" />
<rect x="705.49" y="420.84" width="0.04" height="0.43" fill="rgb(78.35828748281216%, 94.52006587038628%, 20.538401840538754%)" />
<rect x="705.53" y="420.84" width="0.03" height="0.43" fill="rgb(48.82693294493799%, 53.661271822823174%, 0.5448417818436159%)" />
<rect x="705.49" y="421.28" width="0.07" height="1.71" fill="rgb(42.79688623781975%, 44.177448053559424%, 42.856634193436264%)" />
<rect x="705.31" y="422.99" width="0.24" height="1.28" fill="rgb(19.48382691820565%, 6.599266586345361%, 29.62720930197093%)" />
<rect x="705.31" y="424.27" width="0.24" height="0.19" fill="rgb(67.32268989498161%, 9.470014227757881%, 40.133266908605485%)" />
<rect x="705.56" y="420.84" width="0.03" height="3.61" fill="rgb(19.023899936182925%, 94.81901163792969%, 48.09676385590074%)" />
<rect x="705.58" y="420.84" width="0.08" height="3.61" fill="rgb(57.70593322315031%, 67.1737940766917%, 81.71243088715796%)" />
<rect x="705.67" y="420.84" width="0.04" height="3.61" fill="rgb(6.495514693408783%, 15.705188815032628%, 90.15457231766533%)" />
<rect x="705.70" y="420.84" width="0.13" height="3.61" fill="rgb(31.100695770338742%, 81.55300515533914%, 16.532173244532487%)" />
<rect x="662.01" y="424.45" width="35.80" height="24.79" fill="rgb(16.734926757075243%, 98.31450508927955%, 81.1419381462079%)" />
<rect x="697.81" y="424.45" width="8.02" height="24.79" fill="rgb(61.97550337571358%, 36.38231541575173%, 75.85535476434926%)" />
<rect x="705.83" y="375.13" width="30.73" height="74.11" fill="rgb(64.62074070775544%, 72.43208971990211%, 8.186788216894266%)" />
<rect x="736.57" y="375.13" width="30.02" height="36.15" fill="rgb(65.74669759454038%, 92.13945607771844%, 42.88542020128137%)" />
<rect x="736.57" y="411.28" width="27.22" height="4.73" fill="rgb(13.394977461492582%, 6.5375112966795985%, 64.08888309658964%)" />
<rect x="736.57" y="416.01" width="27.22" height="3.39" fill="rgb(48.68602544823452%, 59.11414832316301%, 47.51665645863007%)" />
<rect x="763.79" y="411.28" width="2.80" height="8.12" fill="rgb(33.837348275922274%, 58.55702142904278%, 96.10863578384019%)" />
<rect x="736.57" y="419.40" width="30.02" height="29.84" fill="rgb(89.41708050470687%, 97.17154895943197%, 53.42245708577041%)" />
<rect x="766.59" y="375.13" width="33.41" height="74.11" fill="rgb(71.53760161012855%, 54.2188487761645%, 24.08432185431432%)" />
<rect x="662.01" y="449.24" width="95.31" height="350.76" fill="rgb(52.84092053675663%, 99.11417518037852%, 61.7392707860103%)" />
<rect x="757.32" y="449.24" width="42.68" height="350.76" fill="rgb(14.839070414685166%, 54.34244742222813%, 27.158052477097648%)" />
</svg>
