<?xml version="1.0"?>
<!-- Generated by SVGo -->
<svg width="800" height="800"
     xmlns="http://www.w3.org/2000/svg" 
     xmlns:xlink="http://www.w3.org/1999/xlink">
<rect x="0" y="0" width="800" height="800" fill="beige" />
<text x="5" y="45" style="text-anchor:right;font-size:16px;fill:red">Simulated</text>
<text x="5" y="25" style="text-anchor:right;font-size:16px;fill:blue">Exact</text>
<circle cx="5" cy="795" r="3" fill="red" />
<circle cx="5" cy="795" r="3" fill="blue" />
<circle cx="20" cy="794" r="3" fill="red" />
<circle cx="20" cy="793" r="3" fill="blue" />
<circle cx="36" cy="789" r="3" fill="red" />
<circle cx="36" cy="789" r="3" fill="blue" />
<circle cx="52" cy="782" r="3" fill="red" />
<circle cx="52" cy="783" r="3" fill="blue" />
<circle cx="68" cy="775" r="3" fill="red" />
<circle cx="68" cy="774" r="3" fill="blue" />
<circle cx="84" cy="765" r="3" fill="red" />
<circle cx="84" cy="764" r="3" fill="blue" />
<circle cx="99" cy="749" r="3" fill="red" />
<circle cx="99" cy="751" r="3" fill="blue" />
<circle cx="115" cy="739" r="3" fill="red" />
<circle cx="115" cy="737" r="3" fill="blue" />
<circle cx="131" cy="724" r="3" fill="red" />
<circle cx="131" cy="721" r="3" fill="blue" />
<circle cx="147" cy="705" r="3" fill="red" />
<circle cx="147" cy="703" r="3" fill="blue" />
<circle cx="163" cy="686" r="3" fill="red" />
<circle cx="163" cy="684" r="3" fill="blue" />
<circle cx="178" cy="662" r="3" fill="red" />
<circle cx="178" cy="664" r="3" fill="blue" />
<circle cx="194" cy="641" r="3" fill="red" />
<circle cx="194" cy="642" r="3" fill="blue" />
<circle cx="210" cy="618" r="3" fill="red" />
<circle cx="210" cy="619" r="3" fill="blue" />
<circle cx="226" cy="595" r="3" fill="red" />
<circle cx="226" cy="596" r="3" fill="blue" />
<circle cx="242" cy="573" r="3" fill="red" />
<circle cx="242" cy="571" r="3" fill="blue" />
<circle cx="257" cy="548" r="3" fill="red" />
<circle cx="257" cy="547" r="3" fill="blue" />
<circle cx="273" cy="523" r="3" fill="red" />
<circle cx="273" cy="521" r="3" fill="blue" />
<circle cx="289" cy="495" r="3" fill="red" />
<circle cx="289" cy="496" r="3" fill="blue" />
<circle cx="305" cy="474" r="3" fill="red" />
<circle cx="305" cy="470" r="3" fill="blue" />
<circle cx="321" cy="442" r="3" fill="red" />
<circle cx="321" cy="445" r="3" fill="blue" />
<circle cx="336" cy="421" r="3" fill="red" />
<circle cx="336" cy="420" r="3" fill="blue" />
<circle cx="352" cy="395" r="3" fill="red" />
<circle cx="352" cy="395" r="3" fill="blue" />
<circle cx="368" cy="370" r="3" fill="red" />
<circle cx="368" cy="370" r="3" fill="blue" />
<circle cx="384" cy="344" r="3" fill="red" />
<circle cx="384" cy="346" r="3" fill="blue" />
<circle cx="400" cy="319" r="3" fill="red" />
<circle cx="400" cy="323" r="3" fill="blue" />
<circle cx="415" cy="299" r="3" fill="red" />
<circle cx="415" cy="300" r="3" fill="blue" />
<circle cx="431" cy="279" r="3" fill="red" />
<circle cx="431" cy="278" r="3" fill="blue" />
<circle cx="447" cy="257" r="3" fill="red" />
<circle cx="447" cy="258" r="3" fill="blue" />
<circle cx="463" cy="238" r="3" fill="red" />
<circle cx="463" cy="238" r="3" fill="blue" />
<circle cx="479" cy="217" r="3" fill="red" />
<circle cx="479" cy="218" r="3" fill="blue" />
<circle cx="494" cy="196" r="3" fill="red" />
<circle cx="494" cy="200" r="3" fill="blue" />
<circle cx="510" cy="182" r="3" fill="red" />
<circle cx="510" cy="183" r="3" fill="blue" />
<circle cx="526" cy="168" r="3" fill="red" />
<circle cx="526" cy="167" r="3" fill="blue" />
<circle cx="542" cy="153" r="3" fill="red" />
<circle cx="542" cy="152" r="3" fill="blue" />
<circle cx="558" cy="136" r="3" fill="red" />
<circle cx="558" cy="138" r="3" fill="blue" />
<circle cx="573" cy="125" r="3" fill="red" />
<circle cx="573" cy="125" r="3" fill="blue" />
<circle cx="589" cy="113" r="3" fill="red" />
<circle cx="589" cy="113" r="3" fill="blue" />
<circle cx="605" cy="101" r="3" fill="red" />
<circle cx="605" cy="102" r="3" fill="blue" />
<circle cx="621" cy="92" r="3" fill="red" />
<circle cx="621" cy="91" r="3" fill="blue" />
<circle cx="637" cy="84" r="3" fill="red" />
<circle cx="637" cy="82" r="3" fill="blue" />
<circle cx="652" cy="74" r="3" fill="red" />
<circle cx="652" cy="73" r="3" fill="blue" />
<circle cx="668" cy="64" r="3" fill="red" />
<circle cx="668" cy="66" r="3" fill="blue" />
<circle cx="684" cy="59" r="3" fill="red" />
<circle cx="684" cy="59" r="3" fill="blue" />
<circle cx="700" cy="54" r="3" fill="red" />
<circle cx="700" cy="52" r="3" fill="blue" />
<circle cx="716" cy="47" r="3" fill="red" />
<circle cx="716" cy="46" r="3" fill="blue" />
<circle cx="731" cy="40" r="3" fill="red" />
<circle cx="731" cy="41" r="3" fill="blue" />
<circle cx="747" cy="36" r="3" fill="red" />
<circle cx="747" cy="37" r="3" fill="blue" />
<circle cx="763" cy="32" r="3" fill="red" />
<circle cx="763" cy="33" r="3" fill="blue" />
<circle cx="779" cy="28" r="3" fill="red" />
<circle cx="779" cy="29" r="3" fill="blue" />
</svg>
