<?xml version="1.0"?>
<!-- Generated by SVGo -->
<svg width="800.00" height="800.00"
     xmlns="http://www.w3.org/2000/svg" 
     xmlns:xlink="http://www.w3.org/1999/xlink">
<rect x="0.00" y="0.00" width="800.00" height="800.00" fill="beige" />
<text x="5.00" y="45.00" style="text-anchor:right;font-size:16px;fill:red">Simulated</text>
<text x="5.00" y="25.00" style="text-anchor:right;font-size:16px;fill:blue">Exact</text>
<circle cx="5.00" cy="795.00" r="3.00" fill="red" />
<circle cx="5.00" cy="795.00" r="3.00" fill="blue" />
<circle cx="20.80" cy="793.10" r="3.00" fill="red" />
<circle cx="20.80" cy="792.84" r="3.00" fill="blue" />
<circle cx="36.60" cy="788.48" r="3.00" fill="red" />
<circle cx="36.60" cy="788.52" r="3.00" fill="blue" />
<circle cx="52.40" cy="781.65" r="3.00" fill="red" />
<circle cx="52.40" cy="782.08" r="3.00" fill="blue" />
<circle cx="68.20" cy="774.38" r="3.00" fill="red" />
<circle cx="68.20" cy="773.56" r="3.00" fill="blue" />
<circle cx="84.00" cy="764.31" r="3.00" fill="red" />
<circle cx="84.00" cy="763.03" r="3.00" fill="blue" />
<circle cx="99.80" cy="748.82" r="3.00" fill="red" />
<circle cx="99.80" cy="750.57" r="3.00" fill="blue" />
<circle cx="115.60" cy="738.83" r="3.00" fill="red" />
<circle cx="115.60" cy="736.28" r="3.00" fill="blue" />
<circle cx="131.40" cy="723.50" r="3.00" fill="red" />
<circle cx="131.40" cy="720.25" r="3.00" fill="blue" />
<circle cx="147.20" cy="704.31" r="3.00" fill="red" />
<circle cx="147.20" cy="702.61" r="3.00" fill="blue" />
<circle cx="163.00" cy="685.51" r="3.00" fill="red" />
<circle cx="163.00" cy="683.50" r="3.00" fill="blue" />
<circle cx="178.80" cy="661.85" r="3.00" fill="red" />
<circle cx="178.80" cy="663.05" r="3.00" fill="blue" />
<circle cx="194.60" cy="640.40" r="3.00" fill="red" />
<circle cx="194.60" cy="641.42" r="3.00" fill="blue" />
<circle cx="210.40" cy="617.84" r="3.00" fill="red" />
<circle cx="210.40" cy="618.75" r="3.00" fill="blue" />
<circle cx="226.20" cy="594.02" r="3.00" fill="red" />
<circle cx="226.20" cy="595.21" r="3.00" fill="blue" />
<circle cx="242.00" cy="572.18" r="3.00" fill="red" />
<circle cx="242.00" cy="570.95" r="3.00" fill="blue" />
<circle cx="257.80" cy="547.65" r="3.00" fill="red" />
<circle cx="257.80" cy="546.14" r="3.00" fill="blue" />
<circle cx="273.60" cy="522.69" r="3.00" fill="red" />
<circle cx="273.60" cy="520.94" r="3.00" fill="blue" />
<circle cx="289.40" cy="494.40" r="3.00" fill="red" />
<circle cx="289.40" cy="495.50" r="3.00" fill="blue" />
<circle cx="305.20" cy="473.59" r="3.00" fill="red" />
<circle cx="305.20" cy="469.96" r="3.00" fill="blue" />
<circle cx="321.00" cy="441.40" r="3.00" fill="red" />
<circle cx="321.00" cy="444.49" r="3.00" fill="blue" />
<circle cx="336.80" cy="420.15" r="3.00" fill="red" />
<circle cx="336.80" cy="419.20" r="3.00" fill="blue" />
<circle cx="352.60" cy="394.31" r="3.00" fill="red" />
<circle cx="352.60" cy="394.24" r="3.00" fill="blue" />
<circle cx="368.40" cy="369.43" r="3.00" fill="red" />
<circle cx="368.40" cy="369.71" r="3.00" fill="blue" />
<circle cx="384.20" cy="343.91" r="3.00" fill="red" />
<circle cx="384.20" cy="345.73" r="3.00" fill="blue" />
<circle cx="400.00" cy="318.59" r="3.00" fill="red" />
<circle cx="400.00" cy="322.39" r="3.00" fill="blue" />
<circle cx="415.80" cy="298.17" r="3.00" fill="red" />
<circle cx="415.80" cy="299.78" r="3.00" fill="blue" />
<circle cx="431.60" cy="278.58" r="3.00" fill="red" />
<circle cx="431.60" cy="277.98" r="3.00" fill="blue" />
<circle cx="447.40" cy="256.14" r="3.00" fill="red" />
<circle cx="447.40" cy="257.03" r="3.00" fill="blue" />
<circle cx="463.20" cy="237.38" r="3.00" fill="red" />
<circle cx="463.20" cy="237.01" r="3.00" fill="blue" />
<circle cx="479.00" cy="216.72" r="3.00" fill="red" />
<circle cx="479.00" cy="217.94" r="3.00" fill="blue" />
<circle cx="494.80" cy="195.71" r="3.00" fill="red" />
<circle cx="494.80" cy="199.86" r="3.00" fill="blue" />
<circle cx="510.60" cy="181.57" r="3.00" fill="red" />
<circle cx="510.60" cy="182.77" r="3.00" fill="blue" />
<circle cx="526.40" cy="167.31" r="3.00" fill="red" />
<circle cx="526.40" cy="166.70" r="3.00" fill="blue" />
<circle cx="542.20" cy="152.34" r="3.00" fill="red" />
<circle cx="542.20" cy="151.64" r="3.00" fill="blue" />
<circle cx="558.00" cy="135.23" r="3.00" fill="red" />
<circle cx="558.00" cy="137.58" r="3.00" fill="blue" />
<circle cx="573.80" cy="124.80" r="3.00" fill="red" />
<circle cx="573.80" cy="124.50" r="3.00" fill="blue" />
<circle cx="589.60" cy="112.48" r="3.00" fill="red" />
<circle cx="589.60" cy="112.39" r="3.00" fill="blue" />
<circle cx="605.40" cy="100.12" r="3.00" fill="red" />
<circle cx="605.40" cy="101.21" r="3.00" fill="blue" />
<circle cx="621.20" cy="91.90" r="3.00" fill="red" />
<circle cx="621.20" cy="90.93" r="3.00" fill="blue" />
<circle cx="637.00" cy="83.25" r="3.00" fill="red" />
<circle cx="637.00" cy="81.51" r="3.00" fill="blue" />
<circle cx="652.80" cy="73.85" r="3.00" fill="red" />
<circle cx="652.80" cy="72.92" r="3.00" fill="blue" />
<circle cx="668.60" cy="63.50" r="3.00" fill="red" />
<circle cx="668.60" cy="65.10" r="3.00" fill="blue" />
<circle cx="684.40" cy="58.48" r="3.00" fill="red" />
<circle cx="684.40" cy="58.02" r="3.00" fill="blue" />
<circle cx="700.20" cy="53.98" r="3.00" fill="red" />
<circle cx="700.20" cy="51.63" r="3.00" fill="blue" />
<circle cx="716.00" cy="46.51" r="3.00" fill="red" />
<circle cx="716.00" cy="45.88" r="3.00" fill="blue" />
<circle cx="731.80" cy="39.52" r="3.00" fill="red" />
<circle cx="731.80" cy="40.73" r="3.00" fill="blue" />
<circle cx="747.60" cy="35.10" r="3.00" fill="red" />
<circle cx="747.60" cy="36.13" r="3.00" fill="blue" />
<circle cx="763.40" cy="31.19" r="3.00" fill="red" />
<circle cx="763.40" cy="32.03" r="3.00" fill="blue" />
<circle cx="779.20" cy="27.40" r="3.00" fill="red" />
<circle cx="779.20" cy="28.40" r="3.00" fill="blue" />
</svg>
