<?xml version="1.0"?>
<!-- Generated by SVGo -->
<svg width="800" height="800"
     xmlns="http://www.w3.org/2000/svg" 
     xmlns:xlink="http://www.w3.org/1999/xlink">
<rect x="0" y="0" width="800" height="800" fill="beige" />
<circle cx="5" cy="788" r="2" />
<circle cx="12" cy="14" r="2" />
<circle cx="20" cy="14" r="2" />
<circle cx="28" cy="14" r="2" />
<circle cx="36" cy="14" r="2" />
<circle cx="44" cy="14" r="2" />
<circle cx="52" cy="14" r="2" />
<circle cx="60" cy="14" r="2" />
<circle cx="68" cy="14" r="2" />
<circle cx="76" cy="14" r="2" />
<circle cx="84" cy="15" r="2" />
<circle cx="91" cy="14" r="2" />
<circle cx="99" cy="14" r="2" />
<circle cx="107" cy="15" r="2" />
<circle cx="115" cy="14" r="2" />
<circle cx="123" cy="14" r="2" />
<circle cx="131" cy="15" r="2" />
<circle cx="139" cy="15" r="2" />
<circle cx="147" cy="15" r="2" />
<circle cx="155" cy="16" r="2" />
<circle cx="163" cy="16" r="2" />
<circle cx="170" cy="15" r="2" />
<circle cx="178" cy="15" r="2" />
<circle cx="186" cy="16" r="2" />
<circle cx="194" cy="16" r="2" />
<circle cx="202" cy="16" r="2" />
<circle cx="210" cy="16" r="2" />
<circle cx="218" cy="16" r="2" />
<circle cx="226" cy="16" r="2" />
<circle cx="234" cy="16" r="2" />
<circle cx="242" cy="17" r="2" />
<circle cx="249" cy="17" r="2" />
<circle cx="257" cy="17" r="2" />
<circle cx="265" cy="17" r="2" />
<circle cx="273" cy="17" r="2" />
<circle cx="281" cy="18" r="2" />
<circle cx="289" cy="18" r="2" />
<circle cx="297" cy="18" r="2" />
<circle cx="305" cy="18" r="2" />
<circle cx="313" cy="18" r="2" />
<circle cx="321" cy="19" r="2" />
<circle cx="328" cy="19" r="2" />
<circle cx="336" cy="18" r="2" />
<circle cx="344" cy="19" r="2" />
<circle cx="352" cy="19" r="2" />
<circle cx="360" cy="20" r="2" />
<circle cx="368" cy="20" r="2" />
<circle cx="376" cy="20" r="2" />
<circle cx="384" cy="20" r="2" />
<circle cx="392" cy="21" r="2" />
<circle cx="400" cy="21" r="2" />
<circle cx="407" cy="21" r="2" />
<circle cx="415" cy="22" r="2" />
<circle cx="423" cy="22" r="2" />
<circle cx="431" cy="23" r="2" />
<circle cx="439" cy="22" r="2" />
<circle cx="447" cy="23" r="2" />
<circle cx="455" cy="23" r="2" />
<circle cx="463" cy="24" r="2" />
<circle cx="471" cy="24" r="2" />
<circle cx="479" cy="25" r="2" />
<circle cx="486" cy="25" r="2" />
<circle cx="494" cy="26" r="2" />
<circle cx="502" cy="26" r="2" />
<circle cx="510" cy="27" r="2" />
<circle cx="518" cy="28" r="2" />
<circle cx="526" cy="28" r="2" />
<circle cx="534" cy="29" r="2" />
<circle cx="542" cy="29" r="2" />
<circle cx="550" cy="30" r="2" />
<circle cx="558" cy="31" r="2" />
<circle cx="565" cy="32" r="2" />
<circle cx="573" cy="33" r="2" />
<circle cx="581" cy="34" r="2" />
<circle cx="589" cy="35" r="2" />
<circle cx="597" cy="36" r="2" />
<circle cx="605" cy="36" r="2" />
<circle cx="613" cy="39" r="2" />
<circle cx="621" cy="40" r="2" />
<circle cx="629" cy="41" r="2" />
<circle cx="637" cy="43" r="2" />
<circle cx="644" cy="44" r="2" />
<circle cx="652" cy="47" r="2" />
<circle cx="660" cy="50" r="2" />
<circle cx="668" cy="53" r="2" />
<circle cx="676" cy="55" r="2" />
<circle cx="684" cy="57" r="2" />
<circle cx="692" cy="62" r="2" />
<circle cx="700" cy="66" r="2" />
<circle cx="708" cy="72" r="2" />
<circle cx="716" cy="77" r="2" />
<circle cx="723" cy="84" r="2" />
<circle cx="731" cy="93" r="2" />
<circle cx="739" cy="104" r="2" />
<circle cx="747" cy="120" r="2" />
<circle cx="755" cy="138" r="2" />
<circle cx="763" cy="165" r="2" />
<circle cx="771" cy="203" r="2" />
<circle cx="779" cy="269" r="2" />
<circle cx="787" cy="402" r="2" />
</svg>
