<?xml version="1.0"?>
<!-- Generated by SVGo -->
<svg width="800.00" height="800.00"
     xmlns="http://www.w3.org/2000/svg" 
     xmlns:xlink="http://www.w3.org/1999/xlink">
<rect x="0.00" y="0.00" width="800.00" height="800.00" fill="beige" />
<circle cx="5.00" cy="787.19" r="2.00" />
<circle cx="12.90" cy="13.12" r="2.00" />
<circle cx="20.80" cy="13.06" r="2.00" />
<circle cx="28.70" cy="13.42" r="2.00" />
<circle cx="36.60" cy="13.14" r="2.00" />
<circle cx="44.50" cy="13.31" r="2.00" />
<circle cx="52.40" cy="13.33" r="2.00" />
<circle cx="60.30" cy="13.41" r="2.00" />
<circle cx="68.20" cy="13.45" r="2.00" />
<circle cx="76.10" cy="13.84" r="2.00" />
<circle cx="84.00" cy="14.08" r="2.00" />
<circle cx="91.90" cy="13.97" r="2.00" />
<circle cx="99.80" cy="13.63" r="2.00" />
<circle cx="107.70" cy="14.24" r="2.00" />
<circle cx="115.60" cy="13.69" r="2.00" />
<circle cx="123.50" cy="13.67" r="2.00" />
<circle cx="131.40" cy="14.28" r="2.00" />
<circle cx="139.30" cy="14.45" r="2.00" />
<circle cx="147.20" cy="14.61" r="2.00" />
<circle cx="155.10" cy="15.13" r="2.00" />
<circle cx="163.00" cy="15.05" r="2.00" />
<circle cx="170.90" cy="14.83" r="2.00" />
<circle cx="178.80" cy="14.73" r="2.00" />
<circle cx="186.70" cy="15.11" r="2.00" />
<circle cx="194.60" cy="15.38" r="2.00" />
<circle cx="202.50" cy="15.42" r="2.00" />
<circle cx="210.40" cy="15.94" r="2.00" />
<circle cx="218.30" cy="15.70" r="2.00" />
<circle cx="226.20" cy="15.48" r="2.00" />
<circle cx="234.10" cy="15.91" r="2.00" />
<circle cx="242.00" cy="16.77" r="2.00" />
<circle cx="249.90" cy="16.42" r="2.00" />
<circle cx="257.80" cy="16.41" r="2.00" />
<circle cx="265.70" cy="16.38" r="2.00" />
<circle cx="273.60" cy="16.93" r="2.00" />
<circle cx="281.50" cy="17.21" r="2.00" />
<circle cx="289.40" cy="17.36" r="2.00" />
<circle cx="297.30" cy="17.20" r="2.00" />
<circle cx="305.20" cy="17.32" r="2.00" />
<circle cx="313.10" cy="17.67" r="2.00" />
<circle cx="321.00" cy="18.55" r="2.00" />
<circle cx="328.90" cy="18.69" r="2.00" />
<circle cx="336.80" cy="17.96" r="2.00" />
<circle cx="344.70" cy="18.40" r="2.00" />
<circle cx="352.60" cy="18.25" r="2.00" />
<circle cx="360.50" cy="19.15" r="2.00" />
<circle cx="368.40" cy="19.11" r="2.00" />
<circle cx="376.30" cy="19.55" r="2.00" />
<circle cx="384.20" cy="19.92" r="2.00" />
<circle cx="392.10" cy="20.44" r="2.00" />
<circle cx="400.00" cy="20.44" r="2.00" />
<circle cx="407.90" cy="20.93" r="2.00" />
<circle cx="415.80" cy="21.51" r="2.00" />
<circle cx="423.70" cy="21.65" r="2.00" />
<circle cx="431.60" cy="22.03" r="2.00" />
<circle cx="439.50" cy="21.89" r="2.00" />
<circle cx="447.40" cy="22.54" r="2.00" />
<circle cx="455.30" cy="22.96" r="2.00" />
<circle cx="463.20" cy="23.58" r="2.00" />
<circle cx="471.10" cy="23.94" r="2.00" />
<circle cx="479.00" cy="24.28" r="2.00" />
<circle cx="486.90" cy="24.69" r="2.00" />
<circle cx="494.80" cy="25.24" r="2.00" />
<circle cx="502.70" cy="25.07" r="2.00" />
<circle cx="510.60" cy="26.82" r="2.00" />
<circle cx="518.50" cy="27.44" r="2.00" />
<circle cx="526.40" cy="27.21" r="2.00" />
<circle cx="534.30" cy="28.76" r="2.00" />
<circle cx="542.20" cy="28.87" r="2.00" />
<circle cx="550.10" cy="29.40" r="2.00" />
<circle cx="558.00" cy="30.56" r="2.00" />
<circle cx="565.90" cy="31.34" r="2.00" />
<circle cx="573.80" cy="32.23" r="2.00" />
<circle cx="581.70" cy="33.19" r="2.00" />
<circle cx="589.60" cy="34.63" r="2.00" />
<circle cx="597.50" cy="35.10" r="2.00" />
<circle cx="605.40" cy="35.64" r="2.00" />
<circle cx="613.30" cy="38.03" r="2.00" />
<circle cx="621.20" cy="39.27" r="2.00" />
<circle cx="629.10" cy="40.75" r="2.00" />
<circle cx="637.00" cy="42.56" r="2.00" />
<circle cx="644.90" cy="43.69" r="2.00" />
<circle cx="652.80" cy="46.73" r="2.00" />
<circle cx="660.70" cy="49.03" r="2.00" />
<circle cx="668.60" cy="52.71" r="2.00" />
<circle cx="676.50" cy="54.43" r="2.00" />
<circle cx="684.40" cy="56.94" r="2.00" />
<circle cx="692.30" cy="61.03" r="2.00" />
<circle cx="700.20" cy="65.59" r="2.00" />
<circle cx="708.10" cy="71.87" r="2.00" />
<circle cx="716.00" cy="76.90" r="2.00" />
<circle cx="723.90" cy="83.50" r="2.00" />
<circle cx="731.80" cy="92.45" r="2.00" />
<circle cx="739.70" cy="103.75" r="2.00" />
<circle cx="747.60" cy="119.17" r="2.00" />
<circle cx="755.50" cy="137.25" r="2.00" />
<circle cx="763.40" cy="164.08" r="2.00" />
<circle cx="771.30" cy="202.88" r="2.00" />
<circle cx="779.20" cy="268.98" r="2.00" />
<circle cx="787.10" cy="401.51" r="2.00" />
</svg>
