<?xml version="1.0"?>
<!-- Generated by SVGo -->
<svg width="800" height="800"
     xmlns="http://www.w3.org/2000/svg" 
     xmlns:xlink="http://www.w3.org/1999/xlink">
<rect x="0" y="0" width="800" height="800" fill="beige" />
<line x1="0" y1="242" x2="800" y2="242" stroke="red" />
<circle cx="5" cy="169" r="2" />
<circle cx="8" cy="169" r="2" />
<circle cx="11" cy="5" r="2" />
<circle cx="14" cy="360" r="2" />
<circle cx="17" cy="142" r="2" />
<circle cx="20" cy="387" r="2" />
<circle cx="23" cy="305" r="2" />
<circle cx="26" cy="387" r="2" />
<circle cx="29" cy="360" r="2" />
<circle cx="32" cy="169" r="2" />
<circle cx="35" cy="114" r="2" />
<circle cx="38" cy="414" r="2" />
<circle cx="41" cy="114" r="2" />
<circle cx="44" cy="578" r="2" />
<circle cx="47" cy="87" r="2" />
<circle cx="50" cy="251" r="2" />
<circle cx="53" cy="496" r="2" />
<circle cx="56" cy="223" r="2" />
<circle cx="59" cy="169" r="2" />
<circle cx="62" cy="5" r="2" />
<circle cx="65" cy="60" r="2" />
<circle cx="68" cy="332" r="2" />
<circle cx="71" cy="114" r="2" />
<circle cx="74" cy="169" r="2" />
<circle cx="77" cy="87" r="2" />
<circle cx="80" cy="33" r="2" />
<circle cx="84" cy="387" r="2" />
<circle cx="87" cy="87" r="2" />
<circle cx="90" cy="469" r="2" />
<circle cx="93" cy="114" r="2" />
<circle cx="96" cy="87" r="2" />
<circle cx="99" cy="169" r="2" />
<circle cx="102" cy="223" r="2" />
<circle cx="105" cy="223" r="2" />
<circle cx="108" cy="87" r="2" />
<circle cx="111" cy="278" r="2" />
<circle cx="114" cy="87" r="2" />
<circle cx="117" cy="414" r="2" />
<circle cx="120" cy="33" r="2" />
<circle cx="123" cy="33" r="2" />
<circle cx="126" cy="223" r="2" />
<circle cx="129" cy="223" r="2" />
<circle cx="132" cy="114" r="2" />
<circle cx="135" cy="33" r="2" />
<circle cx="138" cy="87" r="2" />
<circle cx="141" cy="414" r="2" />
<circle cx="144" cy="114" r="2" />
<circle cx="147" cy="251" r="2" />
<circle cx="150" cy="332" r="2" />
<circle cx="153" cy="5" r="2" />
<circle cx="156" cy="169" r="2" />
<circle cx="159" cy="142" r="2" />
<circle cx="163" cy="278" r="2" />
<circle cx="166" cy="33" r="2" />
<circle cx="169" cy="387" r="2" />
<circle cx="172" cy="469" r="2" />
<circle cx="175" cy="33" r="2" />
<circle cx="178" cy="33" r="2" />
<circle cx="181" cy="441" r="2" />
<circle cx="184" cy="360" r="2" />
<circle cx="187" cy="5" r="2" />
<circle cx="190" cy="142" r="2" />
<circle cx="193" cy="523" r="2" />
<circle cx="196" cy="142" r="2" />
<circle cx="199" cy="387" r="2" />
<circle cx="202" cy="87" r="2" />
<circle cx="205" cy="251" r="2" />
<circle cx="208" cy="223" r="2" />
<circle cx="211" cy="523" r="2" />
<circle cx="214" cy="33" r="2" />
<circle cx="217" cy="251" r="2" />
<circle cx="220" cy="196" r="2" />
<circle cx="223" cy="114" r="2" />
<circle cx="226" cy="169" r="2" />
<circle cx="229" cy="278" r="2" />
<circle cx="232" cy="60" r="2" />
<circle cx="235" cy="5" r="2" />
<circle cx="238" cy="5" r="2" />
<circle cx="242" cy="5" r="2" />
<circle cx="245" cy="33" r="2" />
<circle cx="248" cy="414" r="2" />
<circle cx="251" cy="550" r="2" />
<circle cx="254" cy="387" r="2" />
<circle cx="257" cy="60" r="2" />
<circle cx="260" cy="278" r="2" />
<circle cx="263" cy="169" r="2" />
<circle cx="266" cy="5" r="2" />
<circle cx="269" cy="60" r="2" />
<circle cx="272" cy="114" r="2" />
<circle cx="275" cy="60" r="2" />
<circle cx="278" cy="469" r="2" />
<circle cx="281" cy="305" r="2" />
<circle cx="284" cy="196" r="2" />
<circle cx="287" cy="5" r="2" />
<circle cx="290" cy="169" r="2" />
<circle cx="293" cy="60" r="2" />
<circle cx="296" cy="114" r="2" />
<circle cx="299" cy="169" r="2" />
<circle cx="302" cy="251" r="2" />
<circle cx="305" cy="305" r="2" />
<circle cx="308" cy="196" r="2" />
<circle cx="311" cy="196" r="2" />
<circle cx="314" cy="251" r="2" />
<circle cx="317" cy="414" r="2" />
<circle cx="321" cy="387" r="2" />
<circle cx="324" cy="305" r="2" />
<circle cx="327" cy="114" r="2" />
<circle cx="330" cy="496" r="2" />
<circle cx="333" cy="223" r="2" />
<circle cx="336" cy="142" r="2" />
<circle cx="339" cy="169" r="2" />
<circle cx="342" cy="87" r="2" />
<circle cx="345" cy="60" r="2" />
<circle cx="348" cy="332" r="2" />
<circle cx="351" cy="305" r="2" />
<circle cx="354" cy="251" r="2" />
<circle cx="357" cy="114" r="2" />
<circle cx="360" cy="387" r="2" />
<circle cx="363" cy="142" r="2" />
<circle cx="366" cy="305" r="2" />
<circle cx="369" cy="169" r="2" />
<circle cx="372" cy="87" r="2" />
<circle cx="375" cy="60" r="2" />
<circle cx="378" cy="360" r="2" />
<circle cx="381" cy="387" r="2" />
<circle cx="384" cy="114" r="2" />
<circle cx="387" cy="305" r="2" />
<circle cx="390" cy="605" r="2" />
<circle cx="393" cy="87" r="2" />
<circle cx="396" cy="87" r="2" />
<circle cx="400" cy="441" r="2" />
<circle cx="403" cy="414" r="2" />
<circle cx="406" cy="278" r="2" />
<circle cx="409" cy="5" r="2" />
<circle cx="412" cy="414" r="2" />
<circle cx="415" cy="114" r="2" />
<circle cx="418" cy="114" r="2" />
<circle cx="421" cy="523" r="2" />
<circle cx="424" cy="523" r="2" />
<circle cx="427" cy="332" r="2" />
<circle cx="430" cy="169" r="2" />
<circle cx="433" cy="142" r="2" />
<circle cx="436" cy="142" r="2" />
<circle cx="439" cy="360" r="2" />
<circle cx="442" cy="60" r="2" />
<circle cx="445" cy="87" r="2" />
<circle cx="448" cy="223" r="2" />
<circle cx="451" cy="523" r="2" />
<circle cx="454" cy="469" r="2" />
<circle cx="457" cy="33" r="2" />
<circle cx="460" cy="87" r="2" />
<circle cx="463" cy="496" r="2" />
<circle cx="466" cy="550" r="2" />
<circle cx="469" cy="60" r="2" />
<circle cx="472" cy="5" r="2" />
<circle cx="475" cy="142" r="2" />
<circle cx="479" cy="605" r="2" />
<circle cx="482" cy="387" r="2" />
<circle cx="485" cy="169" r="2" />
<circle cx="488" cy="196" r="2" />
<circle cx="491" cy="469" r="2" />
<circle cx="494" cy="251" r="2" />
<circle cx="497" cy="441" r="2" />
<circle cx="500" cy="251" r="2" />
<circle cx="503" cy="142" r="2" />
<circle cx="506" cy="87" r="2" />
<circle cx="509" cy="142" r="2" />
<circle cx="512" cy="414" r="2" />
<circle cx="515" cy="332" r="2" />
<circle cx="518" cy="523" r="2" />
<circle cx="521" cy="142" r="2" />
<circle cx="524" cy="142" r="2" />
<circle cx="527" cy="169" r="2" />
<circle cx="530" cy="278" r="2" />
<circle cx="533" cy="305" r="2" />
<circle cx="536" cy="414" r="2" />
<circle cx="539" cy="550" r="2" />
<circle cx="542" cy="332" r="2" />
<circle cx="545" cy="278" r="2" />
<circle cx="548" cy="87" r="2" />
<circle cx="551" cy="114" r="2" />
<circle cx="554" cy="278" r="2" />
<circle cx="558" cy="605" r="2" />
<circle cx="561" cy="305" r="2" />
<circle cx="564" cy="360" r="2" />
<circle cx="567" cy="196" r="2" />
<circle cx="570" cy="5" r="2" />
<circle cx="573" cy="5" r="2" />
<circle cx="576" cy="387" r="2" />
<circle cx="579" cy="251" r="2" />
<circle cx="582" cy="60" r="2" />
<circle cx="585" cy="496" r="2" />
<circle cx="588" cy="496" r="2" />
<circle cx="591" cy="414" r="2" />
<circle cx="594" cy="441" r="2" />
<circle cx="597" cy="387" r="2" />
<circle cx="600" cy="223" r="2" />
<circle cx="603" cy="169" r="2" />
<circle cx="606" cy="87" r="2" />
<circle cx="609" cy="196" r="2" />
<circle cx="612" cy="142" r="2" />
<circle cx="615" cy="251" r="2" />
<circle cx="618" cy="5" r="2" />
<circle cx="621" cy="114" r="2" />
<circle cx="624" cy="332" r="2" />
<circle cx="627" cy="142" r="2" />
<circle cx="630" cy="441" r="2" />
<circle cx="633" cy="360" r="2" />
<circle cx="637" cy="251" r="2" />
<circle cx="640" cy="223" r="2" />
<circle cx="643" cy="332" r="2" />
<circle cx="646" cy="332" r="2" />
<circle cx="649" cy="169" r="2" />
<circle cx="652" cy="60" r="2" />
<circle cx="655" cy="523" r="2" />
<circle cx="658" cy="469" r="2" />
<circle cx="661" cy="196" r="2" />
<circle cx="664" cy="469" r="2" />
<circle cx="667" cy="332" r="2" />
<circle cx="670" cy="142" r="2" />
<circle cx="673" cy="387" r="2" />
<circle cx="676" cy="169" r="2" />
<circle cx="679" cy="332" r="2" />
<circle cx="682" cy="114" r="2" />
<circle cx="685" cy="114" r="2" />
<circle cx="688" cy="469" r="2" />
<circle cx="691" cy="142" r="2" />
<circle cx="694" cy="223" r="2" />
<circle cx="697" cy="169" r="2" />
<circle cx="700" cy="33" r="2" />
<circle cx="703" cy="33" r="2" />
<circle cx="706" cy="87" r="2" />
<circle cx="709" cy="251" r="2" />
<circle cx="712" cy="223" r="2" />
<circle cx="716" cy="5" r="2" />
<circle cx="719" cy="87" r="2" />
<circle cx="722" cy="578" r="2" />
<circle cx="725" cy="169" r="2" />
<circle cx="728" cy="196" r="2" />
<circle cx="731" cy="251" r="2" />
<circle cx="734" cy="332" r="2" />
<circle cx="737" cy="251" r="2" />
<circle cx="740" cy="60" r="2" />
<circle cx="743" cy="387" r="2" />
<circle cx="746" cy="60" r="2" />
<circle cx="749" cy="196" r="2" />
<circle cx="752" cy="33" r="2" />
<circle cx="755" cy="360" r="2" />
<circle cx="758" cy="87" r="2" />
<circle cx="761" cy="387" r="2" />
<circle cx="764" cy="142" r="2" />
<circle cx="767" cy="251" r="2" />
<circle cx="770" cy="223" r="2" />
<circle cx="773" cy="387" r="2" />
<circle cx="776" cy="114" r="2" />
<circle cx="779" cy="251" r="2" />
<circle cx="782" cy="87" r="2" />
<circle cx="785" cy="414" r="2" />
<circle cx="788" cy="251" r="2" />
<circle cx="791" cy="87" r="2" />
</svg>
