<?xml version="1.0"?>
<!-- Generated by SVGo -->
<svg width="800.00" height="800.00"
     xmlns="http://www.w3.org/2000/svg" 
     xmlns:xlink="http://www.w3.org/1999/xlink">
<rect x="0.00" y="0.00" width="800.00" height="800.00" fill="beige" />
<line x1="0.00" y1="241.10" x2="800.00" y2="241.10" stroke="red" />
<circle cx="5.00" cy="168.45" r="2.00" />
<circle cx="8.04" cy="168.45" r="2.00" />
<circle cx="11.08" cy="5.00" r="2.00" />
<circle cx="14.12" cy="359.14" r="2.00" />
<circle cx="17.15" cy="141.21" r="2.00" />
<circle cx="20.19" cy="386.38" r="2.00" />
<circle cx="23.23" cy="304.66" r="2.00" />
<circle cx="26.27" cy="386.38" r="2.00" />
<circle cx="29.31" cy="359.14" r="2.00" />
<circle cx="32.35" cy="168.45" r="2.00" />
<circle cx="35.38" cy="113.97" r="2.00" />
<circle cx="38.42" cy="413.62" r="2.00" />
<circle cx="41.46" cy="113.97" r="2.00" />
<circle cx="44.50" cy="577.07" r="2.00" />
<circle cx="47.54" cy="86.72" r="2.00" />
<circle cx="50.58" cy="250.17" r="2.00" />
<circle cx="53.62" cy="495.34" r="2.00" />
<circle cx="56.65" cy="222.93" r="2.00" />
<circle cx="59.69" cy="168.45" r="2.00" />
<circle cx="62.73" cy="5.00" r="2.00" />
<circle cx="65.77" cy="59.48" r="2.00" />
<circle cx="68.81" cy="331.90" r="2.00" />
<circle cx="71.85" cy="113.97" r="2.00" />
<circle cx="74.88" cy="168.45" r="2.00" />
<circle cx="77.92" cy="86.72" r="2.00" />
<circle cx="80.96" cy="32.24" r="2.00" />
<circle cx="84.00" cy="386.38" r="2.00" />
<circle cx="87.04" cy="86.72" r="2.00" />
<circle cx="90.08" cy="468.10" r="2.00" />
<circle cx="93.12" cy="113.97" r="2.00" />
<circle cx="96.15" cy="86.72" r="2.00" />
<circle cx="99.19" cy="168.45" r="2.00" />
<circle cx="102.23" cy="222.93" r="2.00" />
<circle cx="105.27" cy="222.93" r="2.00" />
<circle cx="108.31" cy="86.72" r="2.00" />
<circle cx="111.35" cy="277.41" r="2.00" />
<circle cx="114.38" cy="86.72" r="2.00" />
<circle cx="117.42" cy="413.62" r="2.00" />
<circle cx="120.46" cy="32.24" r="2.00" />
<circle cx="123.50" cy="32.24" r="2.00" />
<circle cx="126.54" cy="222.93" r="2.00" />
<circle cx="129.58" cy="222.93" r="2.00" />
<circle cx="132.62" cy="113.97" r="2.00" />
<circle cx="135.65" cy="32.24" r="2.00" />
<circle cx="138.69" cy="86.72" r="2.00" />
<circle cx="141.73" cy="413.62" r="2.00" />
<circle cx="144.77" cy="113.97" r="2.00" />
<circle cx="147.81" cy="250.17" r="2.00" />
<circle cx="150.85" cy="331.90" r="2.00" />
<circle cx="153.88" cy="5.00" r="2.00" />
<circle cx="156.92" cy="168.45" r="2.00" />
<circle cx="159.96" cy="141.21" r="2.00" />
<circle cx="163.00" cy="277.41" r="2.00" />
<circle cx="166.04" cy="32.24" r="2.00" />
<circle cx="169.08" cy="386.38" r="2.00" />
<circle cx="172.12" cy="468.10" r="2.00" />
<circle cx="175.15" cy="32.24" r="2.00" />
<circle cx="178.19" cy="32.24" r="2.00" />
<circle cx="181.23" cy="440.86" r="2.00" />
<circle cx="184.27" cy="359.14" r="2.00" />
<circle cx="187.31" cy="5.00" r="2.00" />
<circle cx="190.35" cy="141.21" r="2.00" />
<circle cx="193.38" cy="522.59" r="2.00" />
<circle cx="196.42" cy="141.21" r="2.00" />
<circle cx="199.46" cy="386.38" r="2.00" />
<circle cx="202.50" cy="86.72" r="2.00" />
<circle cx="205.54" cy="250.17" r="2.00" />
<circle cx="208.58" cy="222.93" r="2.00" />
<circle cx="211.62" cy="522.59" r="2.00" />
<circle cx="214.65" cy="32.24" r="2.00" />
<circle cx="217.69" cy="250.17" r="2.00" />
<circle cx="220.73" cy="195.69" r="2.00" />
<circle cx="223.77" cy="113.97" r="2.00" />
<circle cx="226.81" cy="168.45" r="2.00" />
<circle cx="229.85" cy="277.41" r="2.00" />
<circle cx="232.88" cy="59.48" r="2.00" />
<circle cx="235.92" cy="5.00" r="2.00" />
<circle cx="238.96" cy="5.00" r="2.00" />
<circle cx="242.00" cy="5.00" r="2.00" />
<circle cx="245.04" cy="32.24" r="2.00" />
<circle cx="248.08" cy="413.62" r="2.00" />
<circle cx="251.12" cy="549.83" r="2.00" />
<circle cx="254.15" cy="386.38" r="2.00" />
<circle cx="257.19" cy="59.48" r="2.00" />
<circle cx="260.23" cy="277.41" r="2.00" />
<circle cx="263.27" cy="168.45" r="2.00" />
<circle cx="266.31" cy="5.00" r="2.00" />
<circle cx="269.35" cy="59.48" r="2.00" />
<circle cx="272.38" cy="113.97" r="2.00" />
<circle cx="275.42" cy="59.48" r="2.00" />
<circle cx="278.46" cy="468.10" r="2.00" />
<circle cx="281.50" cy="304.66" r="2.00" />
<circle cx="284.54" cy="195.69" r="2.00" />
<circle cx="287.58" cy="5.00" r="2.00" />
<circle cx="290.62" cy="168.45" r="2.00" />
<circle cx="293.65" cy="59.48" r="2.00" />
<circle cx="296.69" cy="113.97" r="2.00" />
<circle cx="299.73" cy="168.45" r="2.00" />
<circle cx="302.77" cy="250.17" r="2.00" />
<circle cx="305.81" cy="304.66" r="2.00" />
<circle cx="308.85" cy="195.69" r="2.00" />
<circle cx="311.88" cy="195.69" r="2.00" />
<circle cx="314.92" cy="250.17" r="2.00" />
<circle cx="317.96" cy="413.62" r="2.00" />
<circle cx="321.00" cy="386.38" r="2.00" />
<circle cx="324.04" cy="304.66" r="2.00" />
<circle cx="327.08" cy="113.97" r="2.00" />
<circle cx="330.12" cy="495.34" r="2.00" />
<circle cx="333.15" cy="222.93" r="2.00" />
<circle cx="336.19" cy="141.21" r="2.00" />
<circle cx="339.23" cy="168.45" r="2.00" />
<circle cx="342.27" cy="86.72" r="2.00" />
<circle cx="345.31" cy="59.48" r="2.00" />
<circle cx="348.35" cy="331.90" r="2.00" />
<circle cx="351.38" cy="304.66" r="2.00" />
<circle cx="354.42" cy="250.17" r="2.00" />
<circle cx="357.46" cy="113.97" r="2.00" />
<circle cx="360.50" cy="386.38" r="2.00" />
<circle cx="363.54" cy="141.21" r="2.00" />
<circle cx="366.58" cy="304.66" r="2.00" />
<circle cx="369.62" cy="168.45" r="2.00" />
<circle cx="372.65" cy="86.72" r="2.00" />
<circle cx="375.69" cy="59.48" r="2.00" />
<circle cx="378.73" cy="359.14" r="2.00" />
<circle cx="381.77" cy="386.38" r="2.00" />
<circle cx="384.81" cy="113.97" r="2.00" />
<circle cx="387.85" cy="304.66" r="2.00" />
<circle cx="390.88" cy="604.31" r="2.00" />
<circle cx="393.92" cy="86.72" r="2.00" />
<circle cx="396.96" cy="86.72" r="2.00" />
<circle cx="400.00" cy="440.86" r="2.00" />
<circle cx="403.04" cy="413.62" r="2.00" />
<circle cx="406.08" cy="277.41" r="2.00" />
<circle cx="409.12" cy="5.00" r="2.00" />
<circle cx="412.15" cy="413.62" r="2.00" />
<circle cx="415.19" cy="113.97" r="2.00" />
<circle cx="418.23" cy="113.97" r="2.00" />
<circle cx="421.27" cy="522.59" r="2.00" />
<circle cx="424.31" cy="522.59" r="2.00" />
<circle cx="427.35" cy="331.90" r="2.00" />
<circle cx="430.38" cy="168.45" r="2.00" />
<circle cx="433.42" cy="141.21" r="2.00" />
<circle cx="436.46" cy="141.21" r="2.00" />
<circle cx="439.50" cy="359.14" r="2.00" />
<circle cx="442.54" cy="59.48" r="2.00" />
<circle cx="445.58" cy="86.72" r="2.00" />
<circle cx="448.62" cy="222.93" r="2.00" />
<circle cx="451.65" cy="522.59" r="2.00" />
<circle cx="454.69" cy="468.10" r="2.00" />
<circle cx="457.73" cy="32.24" r="2.00" />
<circle cx="460.77" cy="86.72" r="2.00" />
<circle cx="463.81" cy="495.34" r="2.00" />
<circle cx="466.85" cy="549.83" r="2.00" />
<circle cx="469.88" cy="59.48" r="2.00" />
<circle cx="472.92" cy="5.00" r="2.00" />
<circle cx="475.96" cy="141.21" r="2.00" />
<circle cx="479.00" cy="604.31" r="2.00" />
<circle cx="482.04" cy="386.38" r="2.00" />
<circle cx="485.08" cy="168.45" r="2.00" />
<circle cx="488.12" cy="195.69" r="2.00" />
<circle cx="491.15" cy="468.10" r="2.00" />
<circle cx="494.19" cy="250.17" r="2.00" />
<circle cx="497.23" cy="440.86" r="2.00" />
<circle cx="500.27" cy="250.17" r="2.00" />
<circle cx="503.31" cy="141.21" r="2.00" />
<circle cx="506.35" cy="86.72" r="2.00" />
<circle cx="509.38" cy="141.21" r="2.00" />
<circle cx="512.42" cy="413.62" r="2.00" />
<circle cx="515.46" cy="331.90" r="2.00" />
<circle cx="518.50" cy="522.59" r="2.00" />
<circle cx="521.54" cy="141.21" r="2.00" />
<circle cx="524.58" cy="141.21" r="2.00" />
<circle cx="527.62" cy="168.45" r="2.00" />
<circle cx="530.65" cy="277.41" r="2.00" />
<circle cx="533.69" cy="304.66" r="2.00" />
<circle cx="536.73" cy="413.62" r="2.00" />
<circle cx="539.77" cy="549.83" r="2.00" />
<circle cx="542.81" cy="331.90" r="2.00" />
<circle cx="545.85" cy="277.41" r="2.00" />
<circle cx="548.88" cy="86.72" r="2.00" />
<circle cx="551.92" cy="113.97" r="2.00" />
<circle cx="554.96" cy="277.41" r="2.00" />
<circle cx="558.00" cy="604.31" r="2.00" />
<circle cx="561.04" cy="304.66" r="2.00" />
<circle cx="564.08" cy="359.14" r="2.00" />
<circle cx="567.12" cy="195.69" r="2.00" />
<circle cx="570.15" cy="5.00" r="2.00" />
<circle cx="573.19" cy="5.00" r="2.00" />
<circle cx="576.23" cy="386.38" r="2.00" />
<circle cx="579.27" cy="250.17" r="2.00" />
<circle cx="582.31" cy="59.48" r="2.00" />
<circle cx="585.35" cy="495.34" r="2.00" />
<circle cx="588.38" cy="495.34" r="2.00" />
<circle cx="591.42" cy="413.62" r="2.00" />
<circle cx="594.46" cy="440.86" r="2.00" />
<circle cx="597.50" cy="386.38" r="2.00" />
<circle cx="600.54" cy="222.93" r="2.00" />
<circle cx="603.58" cy="168.45" r="2.00" />
<circle cx="606.62" cy="86.72" r="2.00" />
<circle cx="609.65" cy="195.69" r="2.00" />
<circle cx="612.69" cy="141.21" r="2.00" />
<circle cx="615.73" cy="250.17" r="2.00" />
<circle cx="618.77" cy="5.00" r="2.00" />
<circle cx="621.81" cy="113.97" r="2.00" />
<circle cx="624.85" cy="331.90" r="2.00" />
<circle cx="627.88" cy="141.21" r="2.00" />
<circle cx="630.92" cy="440.86" r="2.00" />
<circle cx="633.96" cy="359.14" r="2.00" />
<circle cx="637.00" cy="250.17" r="2.00" />
<circle cx="640.04" cy="222.93" r="2.00" />
<circle cx="643.08" cy="331.90" r="2.00" />
<circle cx="646.12" cy="331.90" r="2.00" />
<circle cx="649.15" cy="168.45" r="2.00" />
<circle cx="652.19" cy="59.48" r="2.00" />
<circle cx="655.23" cy="522.59" r="2.00" />
<circle cx="658.27" cy="468.10" r="2.00" />
<circle cx="661.31" cy="195.69" r="2.00" />
<circle cx="664.35" cy="468.10" r="2.00" />
<circle cx="667.38" cy="331.90" r="2.00" />
<circle cx="670.42" cy="141.21" r="2.00" />
<circle cx="673.46" cy="386.38" r="2.00" />
<circle cx="676.50" cy="168.45" r="2.00" />
<circle cx="679.54" cy="331.90" r="2.00" />
<circle cx="682.58" cy="113.97" r="2.00" />
<circle cx="685.62" cy="113.97" r="2.00" />
<circle cx="688.65" cy="468.10" r="2.00" />
<circle cx="691.69" cy="141.21" r="2.00" />
<circle cx="694.73" cy="222.93" r="2.00" />
<circle cx="697.77" cy="168.45" r="2.00" />
<circle cx="700.81" cy="32.24" r="2.00" />
<circle cx="703.85" cy="32.24" r="2.00" />
<circle cx="706.88" cy="86.72" r="2.00" />
<circle cx="709.92" cy="250.17" r="2.00" />
<circle cx="712.96" cy="222.93" r="2.00" />
<circle cx="716.00" cy="5.00" r="2.00" />
<circle cx="719.04" cy="86.72" r="2.00" />
<circle cx="722.08" cy="577.07" r="2.00" />
<circle cx="725.12" cy="168.45" r="2.00" />
<circle cx="728.15" cy="195.69" r="2.00" />
<circle cx="731.19" cy="250.17" r="2.00" />
<circle cx="734.23" cy="331.90" r="2.00" />
<circle cx="737.27" cy="250.17" r="2.00" />
<circle cx="740.31" cy="59.48" r="2.00" />
<circle cx="743.35" cy="386.38" r="2.00" />
<circle cx="746.38" cy="59.48" r="2.00" />
<circle cx="749.42" cy="195.69" r="2.00" />
<circle cx="752.46" cy="32.24" r="2.00" />
<circle cx="755.50" cy="359.14" r="2.00" />
<circle cx="758.54" cy="86.72" r="2.00" />
<circle cx="761.58" cy="386.38" r="2.00" />
<circle cx="764.62" cy="141.21" r="2.00" />
<circle cx="767.65" cy="250.17" r="2.00" />
<circle cx="770.69" cy="222.93" r="2.00" />
<circle cx="773.73" cy="386.38" r="2.00" />
<circle cx="776.77" cy="113.97" r="2.00" />
<circle cx="779.81" cy="250.17" r="2.00" />
<circle cx="782.85" cy="86.72" r="2.00" />
<circle cx="785.88" cy="413.62" r="2.00" />
<circle cx="788.92" cy="250.17" r="2.00" />
<circle cx="791.96" cy="86.72" r="2.00" />
</svg>
