<?xml version="1.0"?>
<!-- Generated by SVGo -->
<svg width="800.00" height="800.00"
     xmlns="http://www.w3.org/2000/svg" 
     xmlns:xlink="http://www.w3.org/1999/xlink">
<rect x="0.00" y="0.00" width="800.00" height="800.00" fill="beige" />
<line x1="0.00" y1="624.77" x2="800.00" y2="624.77" stroke="red" />
<circle cx="5.00" cy="623.26" r="2.00" />
<circle cx="7.26" cy="543.12" r="2.00" />
<circle cx="9.51" cy="514.49" r="2.00" />
<circle cx="11.77" cy="462.97" r="2.00" />
<circle cx="14.03" cy="663.33" r="2.00" />
<circle cx="16.29" cy="703.41" r="2.00" />
<circle cx="18.54" cy="531.67" r="2.00" />
<circle cx="20.80" cy="422.90" r="2.00" />
<circle cx="23.06" cy="611.81" r="2.00" />
<circle cx="25.31" cy="697.68" r="2.00" />
<circle cx="27.57" cy="314.13" r="2.00" />
<circle cx="29.83" cy="525.94" r="2.00" />
<circle cx="32.09" cy="445.80" r="2.00" />
<circle cx="34.34" cy="634.71" r="2.00" />
<circle cx="36.60" cy="674.78" r="2.00" />
<circle cx="38.86" cy="537.39" r="2.00" />
<circle cx="41.11" cy="669.06" r="2.00" />
<circle cx="43.37" cy="606.09" r="2.00" />
<circle cx="45.63" cy="520.22" r="2.00" />
<circle cx="47.89" cy="634.71" r="2.00" />
<circle cx="50.14" cy="663.33" r="2.00" />
<circle cx="52.40" cy="703.41" r="2.00" />
<circle cx="54.66" cy="686.23" r="2.00" />
<circle cx="56.91" cy="663.33" r="2.00" />
<circle cx="59.17" cy="554.57" r="2.00" />
<circle cx="61.43" cy="703.41" r="2.00" />
<circle cx="63.69" cy="669.06" r="2.00" />
<circle cx="65.94" cy="714.86" r="2.00" />
<circle cx="68.20" cy="571.74" r="2.00" />
<circle cx="70.46" cy="543.12" r="2.00" />
<circle cx="72.71" cy="623.26" r="2.00" />
<circle cx="74.97" cy="531.67" r="2.00" />
<circle cx="77.23" cy="686.23" r="2.00" />
<circle cx="79.49" cy="583.19" r="2.00" />
<circle cx="81.74" cy="543.12" r="2.00" />
<circle cx="84.00" cy="669.06" r="2.00" />
<circle cx="86.26" cy="709.13" r="2.00" />
<circle cx="88.51" cy="566.01" r="2.00" />
<circle cx="90.77" cy="606.09" r="2.00" />
<circle cx="93.03" cy="709.13" r="2.00" />
<circle cx="95.29" cy="577.46" r="2.00" />
<circle cx="97.54" cy="720.58" r="2.00" />
<circle cx="99.80" cy="720.58" r="2.00" />
<circle cx="102.06" cy="674.78" r="2.00" />
<circle cx="104.31" cy="680.51" r="2.00" />
<circle cx="106.57" cy="634.71" r="2.00" />
<circle cx="108.83" cy="680.51" r="2.00" />
<circle cx="111.09" cy="697.68" r="2.00" />
<circle cx="113.34" cy="674.78" r="2.00" />
<circle cx="115.60" cy="543.12" r="2.00" />
<circle cx="117.86" cy="594.64" r="2.00" />
<circle cx="120.11" cy="646.16" r="2.00" />
<circle cx="122.37" cy="583.19" r="2.00" />
<circle cx="124.63" cy="606.09" r="2.00" />
<circle cx="126.89" cy="577.46" r="2.00" />
<circle cx="129.14" cy="743.48" r="2.00" />
<circle cx="131.40" cy="634.71" r="2.00" />
<circle cx="133.66" cy="468.70" r="2.00" />
<circle cx="135.91" cy="628.99" r="2.00" />
<circle cx="138.17" cy="337.03" r="2.00" />
<circle cx="140.43" cy="651.88" r="2.00" />
<circle cx="142.69" cy="617.54" r="2.00" />
<circle cx="144.94" cy="651.88" r="2.00" />
<circle cx="147.20" cy="623.26" r="2.00" />
<circle cx="149.46" cy="566.01" r="2.00" />
<circle cx="151.71" cy="680.51" r="2.00" />
<circle cx="153.97" cy="588.91" r="2.00" />
<circle cx="156.23" cy="726.30" r="2.00" />
<circle cx="158.49" cy="714.86" r="2.00" />
<circle cx="160.74" cy="697.68" r="2.00" />
<circle cx="163.00" cy="514.49" r="2.00" />
<circle cx="165.26" cy="726.30" r="2.00" />
<circle cx="167.51" cy="628.99" r="2.00" />
<circle cx="169.77" cy="617.54" r="2.00" />
<circle cx="172.03" cy="646.16" r="2.00" />
<circle cx="174.29" cy="674.78" r="2.00" />
<circle cx="176.54" cy="606.09" r="2.00" />
<circle cx="178.80" cy="606.09" r="2.00" />
<circle cx="181.06" cy="709.13" r="2.00" />
<circle cx="183.31" cy="663.33" r="2.00" />
<circle cx="185.57" cy="600.36" r="2.00" />
<circle cx="187.83" cy="520.22" r="2.00" />
<circle cx="190.09" cy="669.06" r="2.00" />
<circle cx="192.34" cy="611.81" r="2.00" />
<circle cx="194.60" cy="651.88" r="2.00" />
<circle cx="196.86" cy="514.49" r="2.00" />
<circle cx="199.11" cy="594.64" r="2.00" />
<circle cx="201.37" cy="583.19" r="2.00" />
<circle cx="203.63" cy="457.25" r="2.00" />
<circle cx="205.89" cy="663.33" r="2.00" />
<circle cx="208.14" cy="514.49" r="2.00" />
<circle cx="210.40" cy="514.49" r="2.00" />
<circle cx="212.66" cy="680.51" r="2.00" />
<circle cx="214.91" cy="531.67" r="2.00" />
<circle cx="217.17" cy="669.06" r="2.00" />
<circle cx="219.43" cy="732.03" r="2.00" />
<circle cx="221.69" cy="600.36" r="2.00" />
<circle cx="223.94" cy="560.29" r="2.00" />
<circle cx="226.20" cy="474.42" r="2.00" />
<circle cx="228.46" cy="577.46" r="2.00" />
<circle cx="230.71" cy="617.54" r="2.00" />
<circle cx="232.97" cy="628.99" r="2.00" />
<circle cx="235.23" cy="548.84" r="2.00" />
<circle cx="237.49" cy="651.88" r="2.00" />
<circle cx="239.74" cy="669.06" r="2.00" />
<circle cx="242.00" cy="611.81" r="2.00" />
<circle cx="244.26" cy="394.28" r="2.00" />
<circle cx="246.51" cy="548.84" r="2.00" />
<circle cx="248.77" cy="669.06" r="2.00" />
<circle cx="251.03" cy="594.64" r="2.00" />
<circle cx="253.29" cy="531.67" r="2.00" />
<circle cx="255.54" cy="611.81" r="2.00" />
<circle cx="257.80" cy="703.41" r="2.00" />
<circle cx="260.06" cy="743.48" r="2.00" />
<circle cx="262.31" cy="611.81" r="2.00" />
<circle cx="264.57" cy="628.99" r="2.00" />
<circle cx="266.83" cy="743.48" r="2.00" />
<circle cx="269.09" cy="566.01" r="2.00" />
<circle cx="271.34" cy="657.61" r="2.00" />
<circle cx="273.60" cy="600.36" r="2.00" />
<circle cx="275.86" cy="600.36" r="2.00" />
<circle cx="278.11" cy="663.33" r="2.00" />
<circle cx="280.37" cy="606.09" r="2.00" />
<circle cx="282.63" cy="548.84" r="2.00" />
<circle cx="284.89" cy="606.09" r="2.00" />
<circle cx="287.14" cy="571.74" r="2.00" />
<circle cx="289.40" cy="560.29" r="2.00" />
<circle cx="291.66" cy="571.74" r="2.00" />
<circle cx="293.91" cy="663.33" r="2.00" />
<circle cx="296.17" cy="520.22" r="2.00" />
<circle cx="298.43" cy="588.91" r="2.00" />
<circle cx="300.69" cy="691.96" r="2.00" />
<circle cx="302.94" cy="657.61" r="2.00" />
<circle cx="305.20" cy="697.68" r="2.00" />
<circle cx="307.46" cy="543.12" r="2.00" />
<circle cx="309.71" cy="583.19" r="2.00" />
<circle cx="311.97" cy="628.99" r="2.00" />
<circle cx="314.23" cy="537.39" r="2.00" />
<circle cx="316.49" cy="669.06" r="2.00" />
<circle cx="318.74" cy="680.51" r="2.00" />
<circle cx="321.00" cy="571.74" r="2.00" />
<circle cx="323.26" cy="709.13" r="2.00" />
<circle cx="325.51" cy="571.74" r="2.00" />
<circle cx="327.77" cy="571.74" r="2.00" />
<circle cx="330.03" cy="560.29" r="2.00" />
<circle cx="332.29" cy="640.43" r="2.00" />
<circle cx="334.54" cy="548.84" r="2.00" />
<circle cx="336.80" cy="651.88" r="2.00" />
<circle cx="339.06" cy="640.43" r="2.00" />
<circle cx="341.31" cy="703.41" r="2.00" />
<circle cx="343.57" cy="611.81" r="2.00" />
<circle cx="345.83" cy="720.58" r="2.00" />
<circle cx="348.09" cy="628.99" r="2.00" />
<circle cx="350.34" cy="640.43" r="2.00" />
<circle cx="352.60" cy="583.19" r="2.00" />
<circle cx="354.86" cy="554.57" r="2.00" />
<circle cx="357.11" cy="663.33" r="2.00" />
<circle cx="359.37" cy="571.74" r="2.00" />
<circle cx="361.63" cy="571.74" r="2.00" />
<circle cx="363.89" cy="594.64" r="2.00" />
<circle cx="366.14" cy="611.81" r="2.00" />
<circle cx="368.40" cy="588.91" r="2.00" />
<circle cx="370.66" cy="691.96" r="2.00" />
<circle cx="372.91" cy="514.49" r="2.00" />
<circle cx="375.17" cy="428.62" r="2.00" />
<circle cx="377.43" cy="726.30" r="2.00" />
<circle cx="379.69" cy="617.54" r="2.00" />
<circle cx="381.94" cy="686.23" r="2.00" />
<circle cx="384.20" cy="663.33" r="2.00" />
<circle cx="386.46" cy="617.54" r="2.00" />
<circle cx="388.71" cy="623.26" r="2.00" />
<circle cx="390.97" cy="709.13" r="2.00" />
<circle cx="393.23" cy="669.06" r="2.00" />
<circle cx="395.49" cy="714.86" r="2.00" />
<circle cx="397.74" cy="709.13" r="2.00" />
<circle cx="400.00" cy="623.26" r="2.00" />
<circle cx="402.26" cy="537.39" r="2.00" />
<circle cx="404.51" cy="560.29" r="2.00" />
<circle cx="406.77" cy="691.96" r="2.00" />
<circle cx="409.03" cy="669.06" r="2.00" />
<circle cx="411.29" cy="680.51" r="2.00" />
<circle cx="413.54" cy="634.71" r="2.00" />
<circle cx="415.80" cy="594.64" r="2.00" />
<circle cx="418.06" cy="577.46" r="2.00" />
<circle cx="420.31" cy="651.88" r="2.00" />
<circle cx="422.57" cy="560.29" r="2.00" />
<circle cx="424.83" cy="548.84" r="2.00" />
<circle cx="427.09" cy="577.46" r="2.00" />
<circle cx="429.34" cy="531.67" r="2.00" />
<circle cx="431.60" cy="566.01" r="2.00" />
<circle cx="433.86" cy="514.49" r="2.00" />
<circle cx="436.11" cy="583.19" r="2.00" />
<circle cx="438.37" cy="382.83" r="2.00" />
<circle cx="440.63" cy="543.12" r="2.00" />
<circle cx="442.89" cy="657.61" r="2.00" />
<circle cx="445.14" cy="669.06" r="2.00" />
<circle cx="447.40" cy="646.16" r="2.00" />
<circle cx="449.66" cy="600.36" r="2.00" />
<circle cx="451.91" cy="548.84" r="2.00" />
<circle cx="454.17" cy="669.06" r="2.00" />
<circle cx="456.43" cy="686.23" r="2.00" />
<circle cx="458.69" cy="669.06" r="2.00" />
<circle cx="460.94" cy="703.41" r="2.00" />
<circle cx="463.20" cy="640.43" r="2.00" />
<circle cx="465.46" cy="571.74" r="2.00" />
<circle cx="467.71" cy="606.09" r="2.00" />
<circle cx="469.97" cy="686.23" r="2.00" />
<circle cx="472.23" cy="583.19" r="2.00" />
<circle cx="474.49" cy="697.68" r="2.00" />
<circle cx="476.74" cy="611.81" r="2.00" />
<circle cx="479.00" cy="560.29" r="2.00" />
<circle cx="481.26" cy="646.16" r="2.00" />
<circle cx="483.51" cy="566.01" r="2.00" />
<circle cx="485.77" cy="577.46" r="2.00" />
<circle cx="488.03" cy="640.43" r="2.00" />
<circle cx="490.29" cy="514.49" r="2.00" />
<circle cx="492.54" cy="623.26" r="2.00" />
<circle cx="494.80" cy="640.43" r="2.00" />
<circle cx="497.06" cy="726.30" r="2.00" />
<circle cx="499.31" cy="663.33" r="2.00" />
<circle cx="501.57" cy="537.39" r="2.00" />
<circle cx="503.83" cy="611.81" r="2.00" />
<circle cx="506.09" cy="703.41" r="2.00" />
<circle cx="508.34" cy="600.36" r="2.00" />
<circle cx="510.60" cy="703.41" r="2.00" />
<circle cx="512.86" cy="657.61" r="2.00" />
<circle cx="515.11" cy="583.19" r="2.00" />
<circle cx="517.37" cy="611.81" r="2.00" />
<circle cx="519.63" cy="600.36" r="2.00" />
<circle cx="521.89" cy="422.90" r="2.00" />
<circle cx="524.14" cy="697.68" r="2.00" />
<circle cx="526.40" cy="714.86" r="2.00" />
<circle cx="528.66" cy="165.29" r="2.00" />
<circle cx="530.91" cy="640.43" r="2.00" />
<circle cx="533.17" cy="537.39" r="2.00" />
<circle cx="535.43" cy="640.43" r="2.00" />
<circle cx="537.69" cy="703.41" r="2.00" />
<circle cx="539.94" cy="577.46" r="2.00" />
<circle cx="542.20" cy="623.26" r="2.00" />
<circle cx="544.46" cy="720.58" r="2.00" />
<circle cx="546.71" cy="646.16" r="2.00" />
<circle cx="548.97" cy="302.68" r="2.00" />
<circle cx="551.23" cy="606.09" r="2.00" />
<circle cx="553.49" cy="657.61" r="2.00" />
<circle cx="555.74" cy="548.84" r="2.00" />
<circle cx="558.00" cy="606.09" r="2.00" />
<circle cx="560.26" cy="703.41" r="2.00" />
<circle cx="562.51" cy="663.33" r="2.00" />
<circle cx="564.77" cy="634.71" r="2.00" />
<circle cx="567.03" cy="617.54" r="2.00" />
<circle cx="569.29" cy="588.91" r="2.00" />
<circle cx="571.54" cy="600.36" r="2.00" />
<circle cx="573.80" cy="566.01" r="2.00" />
<circle cx="576.06" cy="503.04" r="2.00" />
<circle cx="578.31" cy="628.99" r="2.00" />
<circle cx="580.57" cy="623.26" r="2.00" />
<circle cx="582.83" cy="720.58" r="2.00" />
<circle cx="585.09" cy="583.19" r="2.00" />
<circle cx="587.34" cy="646.16" r="2.00" />
<circle cx="589.60" cy="566.01" r="2.00" />
<circle cx="591.86" cy="577.46" r="2.00" />
<circle cx="594.11" cy="709.13" r="2.00" />
<circle cx="596.37" cy="537.39" r="2.00" />
<circle cx="598.63" cy="640.43" r="2.00" />
<circle cx="600.89" cy="583.19" r="2.00" />
<circle cx="603.14" cy="548.84" r="2.00" />
<circle cx="605.40" cy="617.54" r="2.00" />
<circle cx="607.66" cy="657.61" r="2.00" />
<circle cx="609.91" cy="606.09" r="2.00" />
<circle cx="612.17" cy="428.62" r="2.00" />
<circle cx="614.43" cy="606.09" r="2.00" />
<circle cx="616.69" cy="634.71" r="2.00" />
<circle cx="618.94" cy="646.16" r="2.00" />
<circle cx="621.20" cy="571.74" r="2.00" />
<circle cx="623.46" cy="422.90" r="2.00" />
<circle cx="625.71" cy="594.64" r="2.00" />
<circle cx="627.97" cy="714.86" r="2.00" />
<circle cx="630.23" cy="737.75" r="2.00" />
<circle cx="632.49" cy="709.13" r="2.00" />
<circle cx="634.74" cy="525.94" r="2.00" />
<circle cx="637.00" cy="720.58" r="2.00" />
<circle cx="639.26" cy="703.41" r="2.00" />
<circle cx="641.51" cy="583.19" r="2.00" />
<circle cx="643.77" cy="657.61" r="2.00" />
<circle cx="646.03" cy="5.00" r="2.00" />
<circle cx="648.29" cy="583.19" r="2.00" />
<circle cx="650.54" cy="640.43" r="2.00" />
<circle cx="652.80" cy="732.03" r="2.00" />
<circle cx="655.06" cy="514.49" r="2.00" />
<circle cx="657.31" cy="548.84" r="2.00" />
<circle cx="659.57" cy="674.78" r="2.00" />
<circle cx="661.83" cy="669.06" r="2.00" />
<circle cx="664.09" cy="686.23" r="2.00" />
<circle cx="666.34" cy="640.43" r="2.00" />
<circle cx="668.60" cy="646.16" r="2.00" />
<circle cx="670.86" cy="594.64" r="2.00" />
<circle cx="673.11" cy="623.26" r="2.00" />
<circle cx="675.37" cy="674.78" r="2.00" />
<circle cx="677.63" cy="634.71" r="2.00" />
<circle cx="679.89" cy="566.01" r="2.00" />
<circle cx="682.14" cy="583.19" r="2.00" />
<circle cx="684.40" cy="686.23" r="2.00" />
<circle cx="686.66" cy="606.09" r="2.00" />
<circle cx="688.91" cy="611.81" r="2.00" />
<circle cx="691.17" cy="657.61" r="2.00" />
<circle cx="693.43" cy="623.26" r="2.00" />
<circle cx="695.69" cy="588.91" r="2.00" />
<circle cx="697.94" cy="726.30" r="2.00" />
<circle cx="700.20" cy="634.71" r="2.00" />
<circle cx="702.46" cy="554.57" r="2.00" />
<circle cx="704.71" cy="686.23" r="2.00" />
<circle cx="706.97" cy="566.01" r="2.00" />
<circle cx="709.23" cy="594.64" r="2.00" />
<circle cx="711.49" cy="543.12" r="2.00" />
<circle cx="713.74" cy="703.41" r="2.00" />
<circle cx="716.00" cy="560.29" r="2.00" />
<circle cx="718.26" cy="714.86" r="2.00" />
<circle cx="720.51" cy="743.48" r="2.00" />
<circle cx="722.77" cy="646.16" r="2.00" />
<circle cx="725.03" cy="617.54" r="2.00" />
<circle cx="727.29" cy="663.33" r="2.00" />
<circle cx="729.54" cy="726.30" r="2.00" />
<circle cx="731.80" cy="514.49" r="2.00" />
<circle cx="734.06" cy="548.84" r="2.00" />
<circle cx="736.31" cy="646.16" r="2.00" />
<circle cx="738.57" cy="691.96" r="2.00" />
<circle cx="740.83" cy="663.33" r="2.00" />
<circle cx="743.09" cy="680.51" r="2.00" />
<circle cx="745.34" cy="611.81" r="2.00" />
<circle cx="747.60" cy="628.99" r="2.00" />
<circle cx="749.86" cy="548.84" r="2.00" />
<circle cx="752.11" cy="680.51" r="2.00" />
<circle cx="754.37" cy="669.06" r="2.00" />
<circle cx="756.63" cy="657.61" r="2.00" />
<circle cx="758.89" cy="657.61" r="2.00" />
<circle cx="761.14" cy="680.51" r="2.00" />
<circle cx="763.40" cy="611.81" r="2.00" />
<circle cx="765.66" cy="743.48" r="2.00" />
<circle cx="767.91" cy="543.12" r="2.00" />
<circle cx="770.17" cy="600.36" r="2.00" />
<circle cx="772.43" cy="640.43" r="2.00" />
<circle cx="774.69" cy="611.81" r="2.00" />
<circle cx="776.94" cy="726.30" r="2.00" />
<circle cx="779.20" cy="691.96" r="2.00" />
<circle cx="781.46" cy="588.91" r="2.00" />
<circle cx="783.71" cy="617.54" r="2.00" />
<circle cx="785.97" cy="732.03" r="2.00" />
<circle cx="788.23" cy="628.99" r="2.00" />
<circle cx="790.49" cy="651.88" r="2.00" />
<circle cx="792.74" cy="691.96" r="2.00" />
</svg>
