<?xml version="1.0"?>
<!-- Generated by SVGo -->
<svg width="800" height="800"
     xmlns="http://www.w3.org/2000/svg" 
     xmlns:xlink="http://www.w3.org/1999/xlink">
<rect x="0" y="0" width="800" height="800" fill="beige" />
<line x1="0" y1="625" x2="800" y2="625" stroke="red" />
<circle cx="5" cy="624" r="2" />
<circle cx="7" cy="544" r="2" />
<circle cx="9" cy="515" r="2" />
<circle cx="11" cy="463" r="2" />
<circle cx="14" cy="664" r="2" />
<circle cx="16" cy="704" r="2" />
<circle cx="18" cy="532" r="2" />
<circle cx="20" cy="423" r="2" />
<circle cx="23" cy="612" r="2" />
<circle cx="25" cy="698" r="2" />
<circle cx="27" cy="315" r="2" />
<circle cx="29" cy="526" r="2" />
<circle cx="32" cy="446" r="2" />
<circle cx="34" cy="635" r="2" />
<circle cx="36" cy="675" r="2" />
<circle cx="38" cy="538" r="2" />
<circle cx="41" cy="670" r="2" />
<circle cx="43" cy="607" r="2" />
<circle cx="45" cy="521" r="2" />
<circle cx="47" cy="635" r="2" />
<circle cx="50" cy="664" r="2" />
<circle cx="52" cy="704" r="2" />
<circle cx="54" cy="687" r="2" />
<circle cx="56" cy="664" r="2" />
<circle cx="59" cy="555" r="2" />
<circle cx="61" cy="704" r="2" />
<circle cx="63" cy="670" r="2" />
<circle cx="65" cy="715" r="2" />
<circle cx="68" cy="572" r="2" />
<circle cx="70" cy="544" r="2" />
<circle cx="72" cy="624" r="2" />
<circle cx="74" cy="532" r="2" />
<circle cx="77" cy="687" r="2" />
<circle cx="79" cy="584" r="2" />
<circle cx="81" cy="544" r="2" />
<circle cx="84" cy="670" r="2" />
<circle cx="86" cy="710" r="2" />
<circle cx="88" cy="567" r="2" />
<circle cx="90" cy="607" r="2" />
<circle cx="93" cy="710" r="2" />
<circle cx="95" cy="578" r="2" />
<circle cx="97" cy="721" r="2" />
<circle cx="99" cy="721" r="2" />
<circle cx="102" cy="675" r="2" />
<circle cx="104" cy="681" r="2" />
<circle cx="106" cy="635" r="2" />
<circle cx="108" cy="681" r="2" />
<circle cx="111" cy="698" r="2" />
<circle cx="113" cy="675" r="2" />
<circle cx="115" cy="544" r="2" />
<circle cx="117" cy="595" r="2" />
<circle cx="120" cy="647" r="2" />
<circle cx="122" cy="584" r="2" />
<circle cx="124" cy="607" r="2" />
<circle cx="126" cy="578" r="2" />
<circle cx="129" cy="744" r="2" />
<circle cx="131" cy="635" r="2" />
<circle cx="133" cy="469" r="2" />
<circle cx="135" cy="629" r="2" />
<circle cx="138" cy="338" r="2" />
<circle cx="140" cy="652" r="2" />
<circle cx="142" cy="618" r="2" />
<circle cx="144" cy="652" r="2" />
<circle cx="147" cy="624" r="2" />
<circle cx="149" cy="567" r="2" />
<circle cx="151" cy="681" r="2" />
<circle cx="153" cy="589" r="2" />
<circle cx="156" cy="727" r="2" />
<circle cx="158" cy="715" r="2" />
<circle cx="160" cy="698" r="2" />
<circle cx="163" cy="515" r="2" />
<circle cx="165" cy="727" r="2" />
<circle cx="167" cy="629" r="2" />
<circle cx="169" cy="618" r="2" />
<circle cx="172" cy="647" r="2" />
<circle cx="174" cy="675" r="2" />
<circle cx="176" cy="607" r="2" />
<circle cx="178" cy="607" r="2" />
<circle cx="181" cy="710" r="2" />
<circle cx="183" cy="664" r="2" />
<circle cx="185" cy="601" r="2" />
<circle cx="187" cy="521" r="2" />
<circle cx="190" cy="670" r="2" />
<circle cx="192" cy="612" r="2" />
<circle cx="194" cy="652" r="2" />
<circle cx="196" cy="515" r="2" />
<circle cx="199" cy="595" r="2" />
<circle cx="201" cy="584" r="2" />
<circle cx="203" cy="458" r="2" />
<circle cx="205" cy="664" r="2" />
<circle cx="208" cy="515" r="2" />
<circle cx="210" cy="515" r="2" />
<circle cx="212" cy="681" r="2" />
<circle cx="214" cy="532" r="2" />
<circle cx="217" cy="670" r="2" />
<circle cx="219" cy="733" r="2" />
<circle cx="221" cy="601" r="2" />
<circle cx="223" cy="561" r="2" />
<circle cx="226" cy="475" r="2" />
<circle cx="228" cy="578" r="2" />
<circle cx="230" cy="618" r="2" />
<circle cx="232" cy="629" r="2" />
<circle cx="235" cy="549" r="2" />
<circle cx="237" cy="652" r="2" />
<circle cx="239" cy="670" r="2" />
<circle cx="242" cy="612" r="2" />
<circle cx="244" cy="395" r="2" />
<circle cx="246" cy="549" r="2" />
<circle cx="248" cy="670" r="2" />
<circle cx="251" cy="595" r="2" />
<circle cx="253" cy="532" r="2" />
<circle cx="255" cy="612" r="2" />
<circle cx="257" cy="704" r="2" />
<circle cx="260" cy="744" r="2" />
<circle cx="262" cy="612" r="2" />
<circle cx="264" cy="629" r="2" />
<circle cx="266" cy="744" r="2" />
<circle cx="269" cy="567" r="2" />
<circle cx="271" cy="658" r="2" />
<circle cx="273" cy="601" r="2" />
<circle cx="275" cy="601" r="2" />
<circle cx="278" cy="664" r="2" />
<circle cx="280" cy="607" r="2" />
<circle cx="282" cy="549" r="2" />
<circle cx="284" cy="607" r="2" />
<circle cx="287" cy="572" r="2" />
<circle cx="289" cy="561" r="2" />
<circle cx="291" cy="572" r="2" />
<circle cx="293" cy="664" r="2" />
<circle cx="296" cy="521" r="2" />
<circle cx="298" cy="589" r="2" />
<circle cx="300" cy="692" r="2" />
<circle cx="302" cy="658" r="2" />
<circle cx="305" cy="698" r="2" />
<circle cx="307" cy="544" r="2" />
<circle cx="309" cy="584" r="2" />
<circle cx="311" cy="629" r="2" />
<circle cx="314" cy="538" r="2" />
<circle cx="316" cy="670" r="2" />
<circle cx="318" cy="681" r="2" />
<circle cx="321" cy="572" r="2" />
<circle cx="323" cy="710" r="2" />
<circle cx="325" cy="572" r="2" />
<circle cx="327" cy="572" r="2" />
<circle cx="330" cy="561" r="2" />
<circle cx="332" cy="641" r="2" />
<circle cx="334" cy="549" r="2" />
<circle cx="336" cy="652" r="2" />
<circle cx="339" cy="641" r="2" />
<circle cx="341" cy="704" r="2" />
<circle cx="343" cy="612" r="2" />
<circle cx="345" cy="721" r="2" />
<circle cx="348" cy="629" r="2" />
<circle cx="350" cy="641" r="2" />
<circle cx="352" cy="584" r="2" />
<circle cx="354" cy="555" r="2" />
<circle cx="357" cy="664" r="2" />
<circle cx="359" cy="572" r="2" />
<circle cx="361" cy="572" r="2" />
<circle cx="363" cy="595" r="2" />
<circle cx="366" cy="612" r="2" />
<circle cx="368" cy="589" r="2" />
<circle cx="370" cy="692" r="2" />
<circle cx="372" cy="515" r="2" />
<circle cx="375" cy="429" r="2" />
<circle cx="377" cy="727" r="2" />
<circle cx="379" cy="618" r="2" />
<circle cx="381" cy="687" r="2" />
<circle cx="384" cy="664" r="2" />
<circle cx="386" cy="618" r="2" />
<circle cx="388" cy="624" r="2" />
<circle cx="390" cy="710" r="2" />
<circle cx="393" cy="670" r="2" />
<circle cx="395" cy="715" r="2" />
<circle cx="397" cy="710" r="2" />
<circle cx="400" cy="624" r="2" />
<circle cx="402" cy="538" r="2" />
<circle cx="404" cy="561" r="2" />
<circle cx="406" cy="692" r="2" />
<circle cx="409" cy="670" r="2" />
<circle cx="411" cy="681" r="2" />
<circle cx="413" cy="635" r="2" />
<circle cx="415" cy="595" r="2" />
<circle cx="418" cy="578" r="2" />
<circle cx="420" cy="652" r="2" />
<circle cx="422" cy="561" r="2" />
<circle cx="424" cy="549" r="2" />
<circle cx="427" cy="578" r="2" />
<circle cx="429" cy="532" r="2" />
<circle cx="431" cy="567" r="2" />
<circle cx="433" cy="515" r="2" />
<circle cx="436" cy="584" r="2" />
<circle cx="438" cy="383" r="2" />
<circle cx="440" cy="544" r="2" />
<circle cx="442" cy="658" r="2" />
<circle cx="445" cy="670" r="2" />
<circle cx="447" cy="647" r="2" />
<circle cx="449" cy="601" r="2" />
<circle cx="451" cy="549" r="2" />
<circle cx="454" cy="670" r="2" />
<circle cx="456" cy="687" r="2" />
<circle cx="458" cy="670" r="2" />
<circle cx="460" cy="704" r="2" />
<circle cx="463" cy="641" r="2" />
<circle cx="465" cy="572" r="2" />
<circle cx="467" cy="607" r="2" />
<circle cx="469" cy="687" r="2" />
<circle cx="472" cy="584" r="2" />
<circle cx="474" cy="698" r="2" />
<circle cx="476" cy="612" r="2" />
<circle cx="479" cy="561" r="2" />
<circle cx="481" cy="647" r="2" />
<circle cx="483" cy="567" r="2" />
<circle cx="485" cy="578" r="2" />
<circle cx="488" cy="641" r="2" />
<circle cx="490" cy="515" r="2" />
<circle cx="492" cy="624" r="2" />
<circle cx="494" cy="641" r="2" />
<circle cx="497" cy="727" r="2" />
<circle cx="499" cy="664" r="2" />
<circle cx="501" cy="538" r="2" />
<circle cx="503" cy="612" r="2" />
<circle cx="506" cy="704" r="2" />
<circle cx="508" cy="601" r="2" />
<circle cx="510" cy="704" r="2" />
<circle cx="512" cy="658" r="2" />
<circle cx="515" cy="584" r="2" />
<circle cx="517" cy="612" r="2" />
<circle cx="519" cy="601" r="2" />
<circle cx="521" cy="423" r="2" />
<circle cx="524" cy="698" r="2" />
<circle cx="526" cy="715" r="2" />
<circle cx="528" cy="166" r="2" />
<circle cx="530" cy="641" r="2" />
<circle cx="533" cy="538" r="2" />
<circle cx="535" cy="641" r="2" />
<circle cx="537" cy="704" r="2" />
<circle cx="539" cy="578" r="2" />
<circle cx="542" cy="624" r="2" />
<circle cx="544" cy="721" r="2" />
<circle cx="546" cy="647" r="2" />
<circle cx="548" cy="303" r="2" />
<circle cx="551" cy="607" r="2" />
<circle cx="553" cy="658" r="2" />
<circle cx="555" cy="549" r="2" />
<circle cx="558" cy="607" r="2" />
<circle cx="560" cy="704" r="2" />
<circle cx="562" cy="664" r="2" />
<circle cx="564" cy="635" r="2" />
<circle cx="567" cy="618" r="2" />
<circle cx="569" cy="589" r="2" />
<circle cx="571" cy="601" r="2" />
<circle cx="573" cy="567" r="2" />
<circle cx="576" cy="504" r="2" />
<circle cx="578" cy="629" r="2" />
<circle cx="580" cy="624" r="2" />
<circle cx="582" cy="721" r="2" />
<circle cx="585" cy="584" r="2" />
<circle cx="587" cy="647" r="2" />
<circle cx="589" cy="567" r="2" />
<circle cx="591" cy="578" r="2" />
<circle cx="594" cy="710" r="2" />
<circle cx="596" cy="538" r="2" />
<circle cx="598" cy="641" r="2" />
<circle cx="600" cy="584" r="2" />
<circle cx="603" cy="549" r="2" />
<circle cx="605" cy="618" r="2" />
<circle cx="607" cy="658" r="2" />
<circle cx="609" cy="607" r="2" />
<circle cx="612" cy="429" r="2" />
<circle cx="614" cy="607" r="2" />
<circle cx="616" cy="635" r="2" />
<circle cx="618" cy="647" r="2" />
<circle cx="621" cy="572" r="2" />
<circle cx="623" cy="423" r="2" />
<circle cx="625" cy="595" r="2" />
<circle cx="627" cy="715" r="2" />
<circle cx="630" cy="738" r="2" />
<circle cx="632" cy="710" r="2" />
<circle cx="634" cy="526" r="2" />
<circle cx="637" cy="721" r="2" />
<circle cx="639" cy="704" r="2" />
<circle cx="641" cy="584" r="2" />
<circle cx="643" cy="658" r="2" />
<circle cx="646" cy="5" r="2" />
<circle cx="648" cy="584" r="2" />
<circle cx="650" cy="641" r="2" />
<circle cx="652" cy="733" r="2" />
<circle cx="655" cy="515" r="2" />
<circle cx="657" cy="549" r="2" />
<circle cx="659" cy="675" r="2" />
<circle cx="661" cy="670" r="2" />
<circle cx="664" cy="687" r="2" />
<circle cx="666" cy="641" r="2" />
<circle cx="668" cy="647" r="2" />
<circle cx="670" cy="595" r="2" />
<circle cx="673" cy="624" r="2" />
<circle cx="675" cy="675" r="2" />
<circle cx="677" cy="635" r="2" />
<circle cx="679" cy="567" r="2" />
<circle cx="682" cy="584" r="2" />
<circle cx="684" cy="687" r="2" />
<circle cx="686" cy="607" r="2" />
<circle cx="688" cy="612" r="2" />
<circle cx="691" cy="658" r="2" />
<circle cx="693" cy="624" r="2" />
<circle cx="695" cy="589" r="2" />
<circle cx="697" cy="727" r="2" />
<circle cx="700" cy="635" r="2" />
<circle cx="702" cy="555" r="2" />
<circle cx="704" cy="687" r="2" />
<circle cx="706" cy="567" r="2" />
<circle cx="709" cy="595" r="2" />
<circle cx="711" cy="544" r="2" />
<circle cx="713" cy="704" r="2" />
<circle cx="716" cy="561" r="2" />
<circle cx="718" cy="715" r="2" />
<circle cx="720" cy="744" r="2" />
<circle cx="722" cy="647" r="2" />
<circle cx="725" cy="618" r="2" />
<circle cx="727" cy="664" r="2" />
<circle cx="729" cy="727" r="2" />
<circle cx="731" cy="515" r="2" />
<circle cx="734" cy="549" r="2" />
<circle cx="736" cy="647" r="2" />
<circle cx="738" cy="692" r="2" />
<circle cx="740" cy="664" r="2" />
<circle cx="743" cy="681" r="2" />
<circle cx="745" cy="612" r="2" />
<circle cx="747" cy="629" r="2" />
<circle cx="749" cy="549" r="2" />
<circle cx="752" cy="681" r="2" />
<circle cx="754" cy="670" r="2" />
<circle cx="756" cy="658" r="2" />
<circle cx="758" cy="658" r="2" />
<circle cx="761" cy="681" r="2" />
<circle cx="763" cy="612" r="2" />
<circle cx="765" cy="744" r="2" />
<circle cx="767" cy="544" r="2" />
<circle cx="770" cy="601" r="2" />
<circle cx="772" cy="641" r="2" />
<circle cx="774" cy="612" r="2" />
<circle cx="776" cy="727" r="2" />
<circle cx="779" cy="692" r="2" />
<circle cx="781" cy="589" r="2" />
<circle cx="783" cy="618" r="2" />
<circle cx="785" cy="733" r="2" />
<circle cx="788" cy="629" r="2" />
<circle cx="790" cy="652" r="2" />
<circle cx="792" cy="692" r="2" />
</svg>
